<svg width="81" height="28" viewBox="0 0 81 28" fill="none" xmlns="http://www.w3.org/2000/svg">
<path d="M0.875 22V17.2832H3.0625V4.95117H0.875V0.234375H11.8535V4.95117H10.0078V8.7793H15.75V4.95117H13.9043V0.234375H24.8828V4.95117H22.6953V17.2832H24.8828V22H13.9043V17.2832H15.75V13.2637H10.0078V17.2832H11.8535V22H0.875ZM34.7949 22.2461C33.0814 22.2461 31.6003 21.9408 30.3516 21.3301C29.112 20.7194 28.1549 19.849 27.4805 18.7188C26.8151 17.5885 26.4824 16.2441 26.4824 14.6855C26.4824 13.1178 26.8151 11.7689 27.4805 10.6387C28.1549 9.50846 29.112 8.63802 30.3516 8.02734C31.6003 7.40755 33.0814 7.09766 34.7949 7.09766C36.5085 7.09766 37.985 7.40755 39.2246 8.02734C40.4733 8.63802 41.4303 9.50846 42.0957 10.6387C42.7702 11.7689 43.1074 13.1178 43.1074 14.6855C43.1074 16.2441 42.7702 17.5885 42.0957 18.7188C41.4303 19.849 40.4733 20.7194 39.2246 21.3301C37.985 21.9408 36.5085 22.2461 34.7949 22.2461ZM34.7949 18.2676C36.0254 18.2676 36.6406 17.069 36.6406 14.6719C36.6406 12.2747 36.0254 11.0762 34.7949 11.0762C33.5645 11.0762 32.9492 12.2747 32.9492 14.6719C32.9492 17.069 33.5645 18.2676 34.7949 18.2676ZM44.3242 27.4414V23.3398H46.3066V11.623H44.3242V7.89062L52.7324 7.08398V8.86133C53.2975 8.32357 53.9538 7.89518 54.7012 7.57617C55.4486 7.24805 56.2096 7.08398 56.9844 7.08398C58.3151 7.08398 59.4544 7.39844 60.4023 8.02734C61.3594 8.65625 62.0931 9.54036 62.6035 10.6797C63.1139 11.819 63.3691 13.1543 63.3691 14.6855C63.3691 16.2077 63.1185 17.5384 62.6172 18.6777C62.1159 19.8079 61.4095 20.6829 60.498 21.3027C59.5957 21.9225 58.5384 22.2324 57.3262 22.2324C55.7585 22.2324 54.2728 21.6628 52.8691 20.5234V23.3398H54.8516V27.4414H44.3242ZM54.8652 18.1445C55.5124 18.1445 56.0137 17.8392 56.3691 17.2285C56.7246 16.6178 56.9023 15.7656 56.9023 14.6719C56.9023 13.5781 56.7246 12.7214 56.3691 12.1016C56.0137 11.4818 55.5124 11.1719 54.8652 11.1719C54.528 11.1719 54.1725 11.2266 53.7988 11.3359C53.4251 11.4362 53.1152 11.5775 52.8691 11.7598V17.5156C53.1152 17.6888 53.4251 17.8392 53.7988 17.9668C54.1725 18.0853 54.528 18.1445 54.8652 18.1445ZM73.5684 22.2461C70.8613 22.2461 68.7376 21.5671 67.1973 20.209C65.666 18.8418 64.9004 16.9505 64.9004 14.5352C64.9004 13.013 65.2331 11.696 65.8984 10.584C66.5729 9.47201 67.5117 8.61523 68.7148 8.01367C69.918 7.40299 71.3171 7.09766 72.9121 7.09766C74.4707 7.09766 75.806 7.38477 76.918 7.95898C78.0299 8.52409 78.8776 9.31706 79.4609 10.3379C80.0534 11.3496 80.3496 12.5208 80.3496 13.8516C80.3496 14.1615 80.3359 14.4622 80.3086 14.7539C80.2812 15.0365 80.2493 15.2962 80.2129 15.5332H71.4219C71.5768 16.4629 71.9961 17.1328 72.6797 17.543C73.3724 17.944 74.2155 18.1445 75.209 18.1445C76.0475 18.1445 76.8451 17.9987 77.6016 17.707C78.3672 17.4062 79.0143 17.0326 79.543 16.5859L79.9121 16.75V20.6738C79.4746 20.9746 78.9095 21.2435 78.2168 21.4805C77.5241 21.7174 76.7721 21.9043 75.9609 22.041C75.1589 22.1777 74.3613 22.2461 73.5684 22.2461ZM73.2676 10.4609C72.6569 10.4609 72.1966 10.6979 71.8867 11.1719C71.5768 11.6458 71.4036 12.3066 71.3672 13.1543H75.168C75.1315 12.3066 74.9583 11.6458 74.6484 11.1719C74.3477 10.6979 73.8874 10.4609 73.2676 10.4609Z" fill="white"/>
</svg>
