<svg width="91" height="32" viewBox="0 0 91 32" fill="none" xmlns="http://www.w3.org/2000/svg">
<path d="M0 25V19.6094H2.5V5.51562H0V0.125H12.5469V5.51562H10.4375V9.89062H17V5.51562H14.8906V0.125H27.4375V5.51562H24.9375V19.6094H27.4375V25H14.8906V19.6094H17V15.0156H10.4375V19.6094H12.5469V25H0ZM38.7656 25.2812C36.8073 25.2812 35.1146 24.9323 33.6875 24.2344C32.2708 23.5365 31.1771 22.5417 30.4062 21.25C29.6458 19.9583 29.2656 18.4219 29.2656 16.6406C29.2656 14.849 29.6458 13.3073 30.4062 12.0156C31.1771 10.724 32.2708 9.72917 33.6875 9.03125C35.1146 8.32292 36.8073 7.96875 38.7656 7.96875C40.724 7.96875 42.4115 8.32292 43.8281 9.03125C45.2552 9.72917 46.349 10.724 47.1094 12.0156C47.8802 13.3073 48.2656 14.849 48.2656 16.6406C48.2656 18.4219 47.8802 19.9583 47.1094 21.25C46.349 22.5417 45.2552 23.5365 43.8281 24.2344C42.4115 24.9323 40.724 25.2812 38.7656 25.2812ZM38.7656 20.7344C40.1719 20.7344 40.875 19.3646 40.875 16.625C40.875 13.8854 40.1719 12.5156 38.7656 12.5156C37.3594 12.5156 36.6562 13.8854 36.6562 16.625C36.6562 19.3646 37.3594 20.7344 38.7656 20.7344ZM49.6562 31.2188V26.5312H51.9219V13.1406H49.6562V8.875L59.2656 7.95312V9.98438C59.9115 9.36979 60.6615 8.88021 61.5156 8.51562C62.3698 8.14062 63.2396 7.95312 64.125 7.95312C65.6458 7.95312 66.9479 8.3125 68.0312 9.03125C69.125 9.75 69.9635 10.7604 70.5469 12.0625C71.1302 13.3646 71.4219 14.8906 71.4219 16.6406C71.4219 18.3802 71.1354 19.901 70.5625 21.2031C69.9896 22.4948 69.1823 23.4948 68.1406 24.2031C67.1094 24.9115 65.901 25.2656 64.5156 25.2656C62.724 25.2656 61.026 24.6146 59.4219 23.3125V26.5312H61.6875V31.2188H49.6562ZM61.7031 20.5938C62.4427 20.5938 63.0156 20.2448 63.4219 19.5469C63.8281 18.849 64.0312 17.875 64.0312 16.625C64.0312 15.375 63.8281 14.3958 63.4219 13.6875C63.0156 12.9792 62.4427 12.625 61.7031 12.625C61.3177 12.625 60.9115 12.6875 60.4844 12.8125C60.0573 12.9271 59.7031 13.0885 59.4219 13.2969V19.875C59.7031 20.0729 60.0573 20.2448 60.4844 20.3906C60.9115 20.526 61.3177 20.5938 61.7031 20.5938ZM83.0781 25.2812C79.9844 25.2812 77.5573 24.5052 75.7969 22.9531C74.0469 21.3906 73.1719 19.2292 73.1719 16.4688C73.1719 14.7292 73.5521 13.224 74.3125 11.9531C75.0833 10.6823 76.1562 9.70312 77.5312 9.01562C78.9062 8.31771 80.5052 7.96875 82.3281 7.96875C84.1094 7.96875 85.6354 8.29688 86.9062 8.95312C88.1771 9.59896 89.1458 10.5052 89.8125 11.6719C90.4896 12.8281 90.8281 14.1667 90.8281 15.6875C90.8281 16.0417 90.8125 16.3854 90.7812 16.7188C90.75 17.0417 90.7135 17.3385 90.6719 17.6094H80.625C80.8021 18.6719 81.2812 19.4375 82.0625 19.9062C82.8542 20.3646 83.8177 20.5938 84.9531 20.5938C85.9115 20.5938 86.8229 20.4271 87.6875 20.0938C88.5625 19.75 89.3021 19.3229 89.9062 18.8125L90.3281 19V23.4844C89.8281 23.8281 89.1823 24.1354 88.3906 24.4062C87.599 24.6771 86.7396 24.8906 85.8125 25.0469C84.8958 25.2031 83.9844 25.2812 83.0781 25.2812ZM82.7344 11.8125C82.0365 11.8125 81.5104 12.0833 81.1562 12.625C80.8021 13.1667 80.6042 13.9219 80.5625 14.8906H84.9062C84.8646 13.9219 84.6667 13.1667 84.3125 12.625C83.9688 12.0833 83.4427 11.8125 82.7344 11.8125Z" fill="#8E7ADA"/>
</svg>
