<svg width="160" height="44" viewBox="0 0 160 44" fill="none" xmlns="http://www.w3.org/2000/svg">
<path d="M11.9016 16.528C9.87891 16.9395 7.8663 17.4072 5.87523 17.9569C4.88061 18.2357 3.88828 18.5233 2.90739 18.8491C1.92651 19.174 0.949287 19.5161 0 19.9289C0.941044 19.4965 1.91231 19.1349 2.8877 18.7895C3.86355 18.4451 4.85038 18.1319 5.84317 17.8401C7.82967 17.2597 9.83861 16.7608 11.8594 16.3181C13.8821 15.8825 15.9172 15.5111 17.9586 15.1774C20.0037 14.8646 22.0548 14.59 24.1113 14.3796C28.2231 13.9398 32.3463 13.6289 36.4722 13.3892C40.5702 13.1551 44.6682 12.9647 48.7745 12.8763C50.7491 11.5061 52.7663 10.222 54.8182 8.98673C56.8968 7.74078 59.011 6.55348 61.1729 5.45647C63.3344 4.36039 65.5406 3.34576 67.8147 2.49449C68.9504 2.06537 70.1044 1.68092 71.2799 1.36443C72.454 1.04608 73.6501 0.78777 74.8659 0.641626C79.6751 0.0942841 84.5058 -0.0155566 89.3273 0.00166419C94.1498 0.0496031 98.9713 0.247411 103.777 0.684912C106.18 0.893888 108.579 1.17221 110.967 1.53524C112.162 1.70745 113.351 1.93086 114.539 2.15752L116.31 2.54941C116.899 2.68485 117.483 2.83891 118.07 2.98319C120.41 3.58313 122.732 4.24356 125.038 4.95334C127.347 5.65567 129.644 6.39337 131.934 7.14922C134.226 7.90228 136.511 8.67536 138.795 9.44471C139.938 9.82822 141.078 10.2206 142.223 10.5952C143.366 10.9699 144.514 11.353 145.67 11.6392C146.245 11.7956 146.84 11.8002 147.439 11.823L148.337 11.8147L149.237 11.7784C150.437 11.7151 151.636 11.6145 152.833 11.4949C155.227 11.2468 157.617 10.9564 160 10.6101C157.623 11.0006 155.24 11.3525 152.847 11.6308C151.651 11.769 150.451 11.8877 149.248 11.9692L148.344 12.0194L147.438 12.0418C146.836 12.0288 146.215 12.0316 145.621 11.8803C144.435 11.6057 143.287 11.2403 142.134 10.8819C140.983 10.5226 139.835 10.1522 138.689 9.77935C136.396 9.03141 134.106 8.27928 131.81 7.5481C129.515 6.81365 127.214 6.09829 124.904 5.41876C122.596 4.73179 120.275 4.09509 117.941 3.51936C117.356 3.38159 116.774 3.23312 116.188 3.1042L114.428 2.7314C113.249 2.50985 112.07 2.29203 110.881 2.12448C108.507 1.77122 106.119 1.5008 103.725 1.3002C98.9374 0.878991 94.1296 0.696545 89.3241 0.6635C84.52 0.655122 79.7085 0.8022 74.9424 1.31696C73.7664 1.45519 72.601 1.70233 71.4493 2.01091C70.2972 2.31763 69.1597 2.6923 68.0377 3.11258C65.7911 3.94569 63.6004 4.9445 61.4518 6.02615C59.3027 7.10873 57.1967 8.283 55.125 9.51638C53.0566 10.7526 51.0124 12.0455 49.0328 13.4134L48.9586 13.4646L48.8711 13.4665C44.7479 13.5451 40.6197 13.6778 36.4979 13.8821C32.3756 14.0841 28.2556 14.3568 24.1489 14.7576C22.0946 14.9502 20.0472 15.2048 18.003 15.4813C15.962 15.7838 13.9261 16.1236 11.9016 16.528ZM143.39 12.8502C141.147 12.5826 138.893 12.4048 136.635 12.2973C134.377 12.2024 132.114 12.1991 129.854 12.2731C127.593 12.3522 125.337 12.5356 123.092 12.7902C120.848 13.0518 118.61 13.3617 116.386 13.755C111.936 14.5216 107.522 15.4939 103.174 16.7035C105.38 16.2348 107.588 15.7866 109.807 15.3957C112.022 14.9898 114.244 14.6226 116.469 14.2889C118.695 13.9607 120.924 13.6643 123.161 13.4423C124.277 13.3203 125.397 13.231 126.516 13.1402L128.196 13.0364C128.756 13.0015 129.317 12.9903 129.878 12.9652C134.364 12.7911 138.86 12.9638 143.335 13.3859C147.812 13.8086 152.271 14.4653 156.725 15.1671C154.524 14.6742 152.31 14.2447 150.089 13.8388C147.867 13.4488 145.634 13.1095 143.39 12.8502ZM109.483 12.7055C113.088 11.5075 116.636 10.1624 120.164 8.75355L120.519 8.61159L120.246 8.3477C119.436 7.56346 118.594 6.83134 117.705 6.1453C117.259 5.80553 116.8 5.48067 116.322 5.18187C115.845 4.88492 115.344 4.60986 114.794 4.42927L114.589 4.35992L114.384 4.30826L113.973 4.2068C113.698 4.157 113.424 4.09696 113.149 4.05553C112.599 3.96757 112.048 3.90055 111.497 3.83771C110.395 3.72043 109.292 3.64037 108.189 3.57149C105.983 3.43791 103.776 3.34855 101.569 3.26244C99.3628 3.17448 97.1556 3.10513 94.9489 3.03252L101.561 3.43C103.765 3.56264 105.969 3.69902 108.167 3.87867C109.266 3.97269 110.364 4.07415 111.457 4.20121C112.002 4.27056 112.547 4.3441 113.086 4.43765C113.356 4.48187 113.621 4.54377 113.889 4.59589L114.282 4.69829L114.478 4.74995L114.665 4.8165C115.165 4.98685 115.642 5.25447 116.1 5.54815C116.559 5.84323 117.003 6.16578 117.436 6.50461C118.195 7.10687 118.924 7.758 119.621 8.43334C117.976 9.06632 116.322 9.67975 114.663 10.2755C112.88 10.9103 111.097 11.548 109.299 12.1325C107.502 12.7185 105.696 13.2794 103.871 13.7359C103.415 13.8435 102.959 13.9668 102.5 14.0464L101.813 14.1804C101.584 14.2158 101.356 14.2381 101.128 14.2679L100.786 14.3103L100.435 14.3256L99.7319 14.3554C99.2653 14.3796 98.7891 14.3824 98.3183 14.3964C94.5399 14.4862 90.7547 14.5202 86.9717 14.5802L75.621 14.7562L64.2699 14.9335L52.9192 15.1788C49.1358 15.2695 45.3519 15.3589 41.5694 15.4925C37.7874 15.6363 34.0035 15.755 30.227 16.0133C37.7915 15.7592 45.3597 15.7252 52.9265 15.6256L64.2777 15.5213L75.6293 15.3929C83.1979 15.3068 90.7634 15.2523 98.3362 15.048C98.8106 15.0317 99.2809 15.0275 99.7589 15.001L100.474 14.9675L100.831 14.9502L101.193 14.9046C101.434 14.8725 101.677 14.8469 101.915 14.8092L102.621 14.6687C103.095 14.584 103.554 14.4574 104.019 14.3461C105.867 13.8732 107.679 13.3017 109.483 12.7055ZM97.5142 12.4886C97.1822 12.4998 96.8497 12.5105 96.5177 12.5244C95.171 12.564 93.8237 12.6012 92.476 12.6282L84.3895 12.7897L52.9751 13.3212C55.3678 11.8728 57.7925 10.4719 60.2429 9.12449C61.6047 8.37376 62.9776 7.64491 64.3647 6.94537C65.7518 6.24676 67.1521 5.57375 68.5786 4.9687C70.0045 4.37016 71.4557 3.79861 72.9577 3.48911C74.4739 3.21683 76.0176 3.03392 77.5595 2.89429C80.6468 2.62202 83.7498 2.51822 86.8518 2.52707C83.7502 2.42793 80.6432 2.47913 77.5434 2.69043C75.9933 2.804 74.4469 2.94502 72.9055 3.20519C71.3596 3.5054 69.8937 4.06437 68.4494 4.64988C67.0056 5.2419 65.5919 5.90141 64.1911 6.58559C62.7908 7.27116 61.4051 7.98606 60.0313 8.72237C57.2846 10.1996 54.5833 11.7546 51.9122 13.3729L51.1264 13.849L52.0432 13.8369C57.4362 13.7667 62.8293 13.708 68.2218 13.607L84.3991 13.2696C87.0954 13.2095 89.7912 13.1309 92.487 13.0373C93.8347 12.9941 95.1829 12.941 96.531 12.8851C97.2051 12.86 97.8796 12.8177 98.5537 12.7851C98.8898 12.772 99.23 12.7399 99.5689 12.712L100.078 12.6692C100.247 12.6459 100.416 12.6194 100.583 12.5901C101.921 12.3462 103.23 12.0143 104.536 11.6648C105.841 11.3134 107.139 10.9411 108.434 10.5571C109.729 10.1722 111.02 9.77563 112.307 9.36512C112.951 9.16033 113.592 8.94857 114.232 8.73075L115.188 8.39657L115.663 8.2197C115.818 8.15408 115.985 8.10567 116.121 8.00607C115.982 8.10195 115.815 8.14571 115.659 8.20714L115.18 8.37144L114.216 8.68048L112.278 9.26831C110.985 9.65369 109.687 10.0251 108.387 10.3839C107.086 10.7423 105.782 11.0891 104.474 11.4144C103.165 11.7332 101.854 12.059 100.533 12.2806C99.6893 12.3969 98.8307 12.4393 97.9689 12.4709L99.2195 4.14024L97.5142 12.4886ZM127.868 7.99863C126.599 7.63187 125.329 7.26884 124.054 6.92536C122.78 6.57722 121.5 6.25002 120.214 5.94424C121.463 6.37848 122.72 6.79131 123.981 7.1832C125.242 7.57974 126.508 7.95674 127.775 8.33001C129.044 8.69723 130.313 9.06027 131.589 9.40375C132.863 9.75189 134.143 10.0786 135.429 10.3844C134.18 9.9497 132.924 9.5364 131.662 9.14498C130.401 8.7489 129.135 8.37144 127.868 7.99863ZM19.5865 20.3818C18.1949 20.4409 16.8087 20.6885 15.4936 21.1479C14.177 21.5998 12.9337 22.2658 11.8411 23.1176C13.0313 22.4148 14.2961 21.8749 15.5994 21.4904C16.9045 21.112 18.2503 20.8923 19.603 20.8435C20.9558 20.7909 22.3149 20.9054 23.6447 21.1832C24.9732 21.4662 26.2751 21.9032 27.5197 22.5013C26.3612 21.7459 25.0716 21.1809 23.7249 20.8318C22.379 20.4744 20.9782 20.3357 19.5865 20.3818ZM136.197 19.9196C135.197 19.8172 134.19 19.7897 133.185 19.82C131.175 19.9038 129.174 20.2566 127.269 20.904C125.362 21.5439 123.554 22.4818 121.948 23.683C123.652 22.6302 125.482 21.819 127.374 21.2465C129.269 20.6796 131.23 20.3543 133.201 20.2812C135.172 20.2068 137.152 20.3776 139.083 20.7988C141.014 21.2242 142.899 21.887 144.685 22.7894C142.985 21.7292 141.112 20.9384 139.163 20.4479C138.191 20.1965 137.197 20.0271 136.197 19.9196ZM66.6053 11.3851C65.4193 11.6611 64.2062 11.8444 62.984 11.952C63.5981 11.9669 64.2127 11.938 64.8263 11.8915C65.4404 11.8468 66.0531 11.7718 66.6612 11.6606C67.2702 11.5512 67.8743 11.4023 68.4659 11.1956C69.0553 10.9867 69.6377 10.7153 70.1447 10.2955L70.3659 10.1121L70.1186 9.95761C69.3575 9.48102 68.5593 9.09843 67.7186 8.79265C67.2959 8.64883 66.8627 8.52642 66.4135 8.45801C65.9665 8.38912 65.4976 8.36771 65.0346 8.48407C64.5918 8.59484 64.1792 8.74796 63.7694 8.91179C63.3605 9.07609 62.9566 9.24829 62.5586 9.43307C62.1588 9.61412 61.7646 9.80634 61.3735 10.006C60.982 10.2038 60.5914 10.403 60.209 10.619L61.4353 10.1512L62.6621 9.69185C63.4781 9.39583 64.3038 9.08074 65.123 8.89085C65.5136 8.80614 65.9331 8.835 66.3452 8.90016C66.7588 8.96718 67.1686 9.08679 67.5707 9.22875C68.2795 9.47403 68.9705 9.80262 69.6318 10.1657C69.2439 10.4486 68.7988 10.6683 68.3418 10.8536C67.7818 11.0756 67.1961 11.2403 66.6053 11.3851ZM74.5087 20.4241C70.0586 20.3874 65.6084 20.3892 61.1587 20.3711C56.7086 20.3906 52.2584 20.3869 47.8087 20.4251L41.1335 20.4893C38.9084 20.5275 36.6833 20.5498 34.4583 20.6019C36.6833 20.654 38.9084 20.6764 41.1335 20.7146L47.8087 20.7788C52.2589 20.8169 56.7086 20.8132 61.1587 20.8328C65.6089 20.8146 70.059 20.8165 74.5087 20.7797L81.184 20.7155C83.409 20.6769 85.6341 20.6545 87.8592 20.6024C85.6341 20.5498 83.409 20.5275 81.184 20.4893L74.5087 20.4241Z" fill="url(#paint0_linear_2_179)"/>
<path d="M25.0227 32.5548C25.0227 33.6929 24.7183 34.617 24.1096 35.3273C23.5009 36.03 22.7607 36.557 21.889 36.9084L25.9808 43.6105H21.7988L18.4172 37.5385H17.3689V43.6105H13.6717V27.7316H18.5863C20.713 27.7316 22.3174 28.1249 23.3995 28.9116C24.4816 29.6983 25.0227 30.9127 25.0227 32.5548ZM21.2127 32.5548C21.2127 31.7911 20.991 31.2373 20.5476 30.8936C20.1118 30.5423 19.4618 30.3666 18.5976 30.3666H17.3689V34.9607H18.7441C19.5482 34.9607 20.1606 34.7698 20.5815 34.3879C21.0023 34.006 21.2127 33.395 21.2127 32.5548Z" fill="#C4C4C4"/>
<path d="M31.6812 30.4124V34.2275H37.0918V36.8625H31.6812V40.9182H38.2077V43.6105H27.9839V27.7316H38.1965L37.8245 30.4124H31.6812Z" fill="#C4C4C4"/>
<path d="M47.2785 43.6105L43.1641 30.8363C43.2318 31.287 43.3107 31.8674 43.4009 32.5777C43.491 33.2804 43.5662 34.0633 43.6263 34.9264C43.6939 35.7894 43.7278 36.6869 43.7278 37.6187V43.6105H40.5828V27.7316H45.1931L49.1835 40.437C49.0632 39.7114 48.9392 38.7834 48.8115 37.653C48.6837 36.5227 48.6198 35.2433 48.6198 33.8151V27.7316H51.7648V43.6105H47.2785Z" fill="#C4C4C4"/>
<path d="M61.5231 30.6072V43.6105H57.8259V30.6072H53.441V27.7316H66.0883L65.7051 30.6072H61.5231Z" fill="#C4C4C4"/>
<path d="M68.3394 37.8478V35.0295H78.1011V37.8478H68.3394Z" fill="#C4C4C4"/>
<path d="M88.9979 40.185H84.4214L83.5985 43.6105H79.7322L84.5116 27.7316H88.9979L93.7773 43.6105H89.8207L88.9979 40.185ZM85.0076 37.4583H88.3892L86.6984 30.4354L85.0076 37.4583Z" fill="#C4C4C4"/>
<path d="M95.3859 37.8478V35.0295H105.148V37.8478H95.3859Z" fill="#C4C4C4"/>
<path d="M115.097 27.3306C116.217 27.3306 117.168 27.4834 117.949 27.7889C118.738 28.0867 119.46 28.5106 120.114 29.0606L118.299 31.2831C117.87 30.9242 117.397 30.6416 116.878 30.4354C116.36 30.2215 115.796 30.1146 115.188 30.1146C114.534 30.1146 113.936 30.3055 113.395 30.6874C112.854 31.0616 112.422 31.6574 112.099 32.4746C111.776 33.2842 111.614 34.3383 111.614 35.6367C111.614 37.5461 111.953 38.9362 112.629 39.8069C113.313 40.67 114.188 41.1015 115.255 41.1015C116.037 41.1015 116.687 40.9526 117.205 40.6547C117.724 40.3568 118.201 40.0322 118.637 39.6809L120.316 41.8576C119.73 42.4457 119.009 42.9498 118.152 43.3699C117.296 43.79 116.262 44 115.052 44C113.64 44 112.385 43.6831 111.287 43.0491C110.198 42.4076 109.341 41.4681 108.717 40.2308C108.101 38.9858 107.793 37.4545 107.793 35.6367C107.793 33.8647 108.113 32.3601 108.751 31.1228C109.398 29.8854 110.273 28.946 111.378 28.3044C112.482 27.6552 113.722 27.3306 115.097 27.3306Z" fill="#C4C4C4"/>
<path d="M129.568 40.185H124.991L124.168 43.6105H120.302L125.081 27.7316H129.568L134.347 43.6105H130.39L129.568 40.185ZM125.577 37.4583H128.959L127.268 30.4354L125.577 37.4583Z" fill="#C4C4C4"/>
<path d="M146.732 32.5548C146.732 33.6929 146.427 34.617 145.819 35.3273C145.21 36.03 144.47 36.557 143.598 36.9084L147.69 43.6105H143.508L140.126 37.5385H139.078V43.6105H135.381V27.7316H140.295C142.422 27.7316 144.026 28.1249 145.108 28.9116C146.191 29.6983 146.732 30.9127 146.732 32.5548ZM142.922 32.5548C142.922 31.7911 142.7 31.2373 142.257 30.8936C141.821 30.5423 141.171 30.3666 140.307 30.3666H139.078V34.9607H140.453C141.257 34.9607 141.87 34.7698 142.29 34.3879C142.711 34.006 142.922 33.395 142.922 32.5548Z" fill="#C4C4C4"/>
<defs>
<linearGradient id="paint0_linear_2_179" x1="0.169508" y1="21.8298" x2="159.728" y2="7.56392" gradientUnits="userSpaceOnUse">
<stop stop-color="#F2B338"/>
<stop offset="1" stop-color="#FF543E"/>
</linearGradient>
</defs>
</svg>
