<svg width="16" height="16" viewBox="0 0 16 16" fill="none" xmlns="http://www.w3.org/2000/svg">
<path d="M7.97046 16V15H14.3831C14.5366 15 14.6778 14.936 14.8066 14.808C14.9354 14.68 14.9995 14.5387 14.9988 14.384V1.616C14.9988 1.462 14.9347 1.32067 14.8066 1.192C14.6784 1.06333 14.5369 0.999333 14.3821 1H7.97147V0H14.3831C14.8436 0 15.2281 0.154333 15.5364 0.463C15.8448 0.771666 15.9993 1.156 16 1.616V14.385C16 14.845 15.8455 15.2293 15.5364 15.538C15.2274 15.8467 14.843 16.0007 14.3831 16H7.97046ZM7.25962 11.539L6.55579 10.819L8.87854 8.5H0V7.5H8.87854L6.55579 5.18L7.25862 4.462L10.8018 8L7.25962 11.539Z" fill="#DEDEDE"/>
</svg>
