<svg width="302" height="201" viewBox="0 0 302 201" fill="none" xmlns="http://www.w3.org/2000/svg">
<path d="M276.415 71.8253C276.908 72.3704 277.286 73.009 277.527 73.7031C277.768 74.3972 277.866 75.1326 277.816 75.8654C277.706 77.3325 277.26 78.7547 276.511 80.0221C275.142 82.5065 272.581 84.5245 270.125 85.9516C268.716 83.1376 269.585 79.588 270.125 77.8192C270.999 75.0052 274.284 70.4907 276.398 71.8253" fill="#EBEBEB"/>
<path d="M270.91 91.2982C271.067 90.4922 271.434 89.7418 271.975 89.1234C272.516 88.5049 273.212 88.0403 273.991 87.7767C274.772 87.5247 275.596 87.4305 276.415 87.4995C277.233 87.5685 278.03 87.7994 278.758 88.1787C279.435 88.5164 280.103 89.0309 280.268 89.7867C280.321 90.137 280.281 90.4952 280.151 90.8249C280.021 91.1546 279.805 91.4441 279.527 91.664C278.963 92.0988 278.293 92.3763 277.586 92.468C275.17 92.87 272.799 92.8379 270.91 91.3103" fill="#EBEBEB"/>
<path d="M264.806 98.1282C264.89 97.9525 264.99 97.7844 265.104 97.6257L265.965 96.2911C266.706 95.1815 267.729 93.5776 269.364 92.2711C270.733 91.1386 272.38 90.3919 274.135 90.1083C274.669 90.0302 275.21 90.0167 275.746 90.0681C275.891 90.0796 276.035 90.0998 276.177 90.1284C276.278 90.1284 276.326 90.1565 276.326 90.1646C275.605 90.1213 274.882 90.151 274.168 90.253C272.446 90.581 270.836 91.3405 269.489 92.46C267.878 93.7263 266.855 95.2981 266.086 96.3875C265.704 96.9383 265.394 97.3845 265.168 97.686C265.062 97.845 264.941 97.9931 264.806 98.1282Z" fill="#E0E0E0"/>
<path d="M274.216 75.4956C274.199 75.5792 274.174 75.6612 274.144 75.7408L273.91 76.4282C273.701 77.0272 273.387 77.8835 272.992 78.9407C272.187 81.0553 271.063 83.9617 269.738 87.1415C268.414 90.3214 267.149 93.1715 266.203 95.2298C265.732 96.2549 265.341 97.079 265.067 97.6418C264.935 97.9071 264.826 98.1242 264.745 98.293C264.711 98.3705 264.669 98.4445 264.62 98.5141C264.64 98.4321 264.668 98.3526 264.705 98.2769C264.782 98.1041 264.874 97.8749 264.995 97.6056L266.07 95.1614C266.98 93.0952 268.224 90.2369 269.549 87.0571C270.874 83.8773 272.03 80.9829 272.855 78.8804L273.833 76.3921C273.946 76.1187 274.035 75.8936 274.107 75.7207C274.135 75.6419 274.171 75.5664 274.216 75.4956Z" fill="#E0E0E0"/>
<path d="M266.457 91.3264C266.843 89.6378 266.82 87.8816 266.39 86.2037C265.96 84.5257 265.135 82.9744 263.984 81.6784C263.396 81.0231 262.531 80.404 261.701 80.7015C260.872 80.999 260.606 82.0321 260.59 82.9125C260.588 84.7499 261.13 86.5468 262.149 88.077C263.168 89.6071 264.618 90.802 266.316 91.5113" fill="#EBEBEB"/>
<path d="M263.344 84.3034C263.486 84.4225 263.615 84.5574 263.727 84.7054C263.872 84.8606 264.007 85.0258 264.129 85.1999C264.278 85.4049 264.463 85.622 264.629 85.8953C264.82 86.1834 264.996 86.4813 265.156 86.7878C265.347 87.1354 265.518 87.4938 265.667 87.8611C266.011 88.7068 266.257 89.5889 266.4 90.4902C266.529 91.3929 266.554 92.3075 266.473 93.2158C266.436 93.6116 266.376 94.005 266.292 94.3936C266.225 94.7336 266.138 95.0693 266.03 95.3986C265.949 95.6715 265.854 95.9399 265.744 96.2026C265.669 96.4041 265.58 96.6002 265.478 96.7895C265.407 96.9586 265.319 97.1202 265.216 97.2719C265.172 97.2719 265.547 96.5604 265.893 95.3544C265.987 95.0278 266.064 94.6964 266.122 94.3615C266.197 93.9774 266.251 93.5896 266.283 93.1997C266.354 92.3055 266.326 91.4063 266.199 90.5183C266.056 89.6344 265.819 88.768 265.494 87.9335C265.333 87.5516 265.184 87.1898 265.007 86.8642C264.855 86.5583 264.687 86.2604 264.504 85.9717C263.827 84.9024 263.288 84.3316 263.344 84.3034Z" fill="#E0E0E0"/>
<path d="M26.1975 46.7687C26.1975 46.7687 22.493 47.9747 26.0847 55.8941C29.6765 63.8135 32.2415 67.7852 32.2415 67.7852C32.2415 67.7852 32.8576 69.6143 31.3275 69.8234C29.7973 70.0324 26.4955 69.345 25.7223 71.1661C24.917 73.0514 26.2458 74.9288 29.0041 76.6534C31.7623 78.3779 37.6695 82.3698 38.201 82.7316C38.7325 83.0934 39.2238 83.9376 38.201 84.2592C37.1782 84.5808 29.6363 84.9989 30.055 88.5606C30.4738 92.1223 38.954 95.676 39.864 96.078C40.774 96.48 40.9874 96.882 40.8868 97.3966C40.7861 97.9111 38.2372 97.7986 36.095 98.0237C33.9529 98.2488 31.5087 98.8518 31.9234 100.886C32.3382 102.92 37.2467 107.386 49.5924 109.179L55.3667 109.637L58.741 104.906C65.3528 94.3454 65.1112 87.7204 63.8267 86.0883C62.5422 84.4562 60.4846 85.9195 58.9423 87.4149C57.4001 88.9103 55.8177 90.9123 55.3667 90.659C54.9157 90.4058 54.7345 89.9877 55.0163 89.0269C55.2982 88.0661 58.0806 79.3226 55.6284 76.7016C53.1762 74.0806 47.9777 79.5478 47.0758 80.1266C46.1738 80.7055 45.8476 79.7648 45.9121 79.1337C45.9765 78.5026 46.7415 71.4153 47.2086 68.1993C47.6757 64.9833 47.0919 62.7723 45.1389 62.1693C43.2545 61.5743 41.6357 64.5411 40.4881 65.5702C39.3405 66.5993 38.3419 64.9471 38.3419 64.9471C38.3419 64.9471 36.9688 60.4367 33.2321 52.5736C29.4953 44.7104 26.117 46.829 26.117 46.829" fill="#EBEBEB"/>
<path d="M55.6083 111C52.8862 105.211 48.2234 94.8479 44.1725 85.9717C40.1217 77.0956 36.4494 69.0636 33.7555 63.2668L30.5624 56.4006L29.6967 54.5353L29.4752 54.0449C29.4448 53.9876 29.4179 53.9285 29.3947 53.868C29.3947 53.868 29.4269 53.9203 29.4833 54.0288L29.7208 54.5112C29.9262 54.9414 30.2282 55.5645 30.6188 56.3644C31.3959 57.9724 32.5033 60.3081 33.8643 63.1984C36.5863 68.9832 40.2787 77.0071 44.3336 85.8833C48.3885 94.7595 53.0312 105.147 55.725 110.952" fill="#E0E0E0"/>
<path d="M30.3208 72.3118C30.459 72.3431 30.5938 72.3875 30.7235 72.4444C30.9731 72.5369 31.3355 72.6856 31.7785 72.8705C32.6643 73.2444 33.8763 73.7911 35.2051 74.4182L38.5956 76.0262L39.6264 76.5086C39.7559 76.5609 39.8799 76.6255 39.9969 76.7016C39.8578 76.6758 39.7225 76.6325 39.5942 76.573C39.3405 76.4805 38.9822 76.3318 38.5392 76.1428C37.6534 75.7408 36.4494 75.1981 35.1246 74.571L31.7221 72.963L30.6913 72.4846C30.5616 72.4411 30.4374 72.3831 30.3208 72.3118Z" fill="#E0E0E0"/>
<path d="M40.4036 76.38C40.3593 76.38 41.378 73.8152 42.6786 70.6997C43.9793 67.5842 45.0946 65.0717 45.1188 65.0717C45.143 65.0717 44.1484 67.6365 42.8437 70.756C41.5391 73.8755 40.4519 76.38 40.4036 76.38Z" fill="#E0E0E0"/>
<path d="M46.0087 90.2691C46.0809 90.1466 46.1659 90.032 46.2624 89.9274C46.4557 89.6822 46.7013 89.3807 46.9912 89.0229C47.6033 88.2591 48.4489 87.1978 49.3387 85.9958C50.2286 84.7939 50.9977 83.6843 51.5494 82.8723L52.2017 81.9115C52.2756 81.7901 52.3605 81.6757 52.4554 81.5698C52.407 81.7041 52.3406 81.8312 52.2581 81.9477C52.1212 82.1889 51.9158 82.5266 51.6541 82.9406C51.1306 83.7728 50.3776 84.9024 49.4797 86.1044C48.5817 87.3064 47.7281 88.3596 47.0878 89.1033C46.7657 89.4731 46.504 89.7706 46.3147 89.9716C46.2252 90.0829 46.1225 90.1828 46.0087 90.2691Z" fill="#E0E0E0"/>
<path d="M36.0789 88.6169C36.2136 88.608 36.3489 88.6161 36.4816 88.641L37.5487 88.7737C38.4466 88.8983 39.6868 89.0792 41.0559 89.2882C42.425 89.4973 43.6611 89.6902 44.5551 89.851L45.6141 90.044C45.7449 90.0591 45.8734 90.0901 45.9966 90.1364C45.8619 90.1453 45.7266 90.1372 45.5939 90.1123L44.5309 89.9797C43.6289 89.855 42.3887 89.6741 41.0197 89.4651C39.6506 89.2561 38.4144 89.0631 37.5205 88.9023L36.4655 88.7093C36.3336 88.693 36.2039 88.6619 36.0789 88.6169Z" fill="#E0E0E0"/>
<path d="M39.4613 101.525C39.6299 101.521 39.7985 101.533 39.9647 101.561L41.3337 101.73C42.4854 101.879 44.0759 102.096 45.8315 102.349C47.5871 102.602 49.1777 102.84 50.3253 103.025L51.6863 103.246C51.854 103.269 52.0197 103.305 52.1816 103.354C52.0117 103.358 51.8418 103.346 51.6742 103.318L50.3092 103.149C49.1575 103 47.563 102.779 45.8074 102.526C44.0517 102.273 42.4612 102.036 41.3136 101.855L39.9566 101.63C39.7886 101.61 39.6228 101.575 39.4613 101.525Z" fill="#E0E0E0"/>
<path d="M51.8916 103.226C51.9816 103.068 52.0853 102.919 52.2017 102.779C52.4272 102.474 52.7252 102.08 53.0835 101.601C53.8285 100.605 54.8512 99.2257 55.9384 97.6699C57.0256 96.1142 57.9759 94.6831 58.6524 93.6499L59.4578 92.4158C59.549 92.2602 59.6526 92.1124 59.7678 91.9736C59.6974 92.1401 59.6125 92.3002 59.5141 92.452C59.341 92.7535 59.0833 93.1876 58.7571 93.7142C58.1048 94.7755 57.1706 96.2227 56.0794 97.7785C54.9882 99.3342 53.9533 100.709 53.1802 101.686C52.7775 102.172 52.4755 102.566 52.25 102.832C52.1436 102.974 52.0236 103.106 51.8916 103.226Z" fill="#E0E0E0"/>
<path d="M145.955 94.3293C135.638 89.1475 131.757 77.3207 130.549 66.3622C130.347 64.5331 129.868 62.6437 130.504 60.9231C131.14 59.2025 133.005 57.8156 134.748 58.3503C136.194 58.7885 137.011 60.2759 137.97 61.4658C139.232 63.0555 140.92 64.2556 142.838 64.927C144.086 65.3612 145.576 65.522 146.631 64.726C148.077 63.6326 147.948 61.4377 147.674 59.6287C147.164 56.2545 146.654 52.8831 146.144 49.5143C145.87 47.7053 145.6 45.8602 145.914 44.0592C146.228 42.2582 147.243 40.4854 148.898 39.7538C150.553 39.0221 152.832 39.7055 153.452 41.4261C153.71 42.1417 153.67 42.9296 153.831 43.6733C153.992 44.417 154.459 45.1969 155.204 45.3054C155.949 45.4139 156.613 44.7949 157.076 44.1838C158.687 42.0894 159.613 39.5488 160.463 37.0363C161.312 34.5238 162.114 31.959 163.523 29.7199C164.932 27.4807 167.054 25.5632 169.627 25.0406C172.2 24.518 175.204 25.72 176.227 28.1722C177.25 30.6244 176.138 33.4343 174.814 35.7338C172.858 39.1491 170.416 42.2635 167.566 44.9798C167.05 45.4662 166.495 45.9928 166.358 46.6963C166.14 47.9586 167.457 48.9917 168.709 49.2169C170.127 49.4701 171.572 49.1204 173.01 49.0802C174.447 49.04 176.07 49.446 176.799 50.6882C177.81 52.4329 176.541 54.5956 175.188 56.087C172.503 59.0721 169.322 61.573 165.786 63.4798C164.522 64.1592 163.181 64.7903 162.238 65.8918C161.296 66.9933 160.885 68.7058 161.719 69.8837C162.552 71.0615 164.28 71.2344 165.641 70.7721C167.002 70.3098 168.142 69.3731 169.402 68.6817C171.757 67.3832 174.999 67.0737 176.908 69.0073C178.16 70.2696 178.538 72.2233 178.252 73.9881C177.967 75.7529 177.101 77.3528 176.151 78.8563C172.833 84.1105 168.266 88.6169 162.774 91.451C157.282 94.2851 152.007 95.5996 145.959 94.3333" fill="#F5F5F5"/>
<path d="M147.779 87.0853C148.734 80.8838 150.043 74.7419 151.701 68.6897L152.981 63.918C153.404 62.3542 153.823 60.8025 154.326 59.3111C155.298 56.4473 156.428 53.6397 157.712 50.9012C158.92 48.2802 160.157 45.836 161.336 43.5567C162.516 41.2774 163.664 39.1789 164.783 37.3096C166.539 34.351 168.528 31.5362 170.731 28.8917C171.508 27.9551 172.136 27.2476 172.567 26.7772L173.058 26.2426C173.112 26.1784 173.171 26.1192 173.235 26.0657C173.193 26.1367 173.143 26.2027 173.086 26.2627L172.615 26.8214C172.212 27.3079 171.592 28.0274 170.831 28.9762C168.674 31.6408 166.72 34.4626 164.985 37.4182C163.877 39.2915 162.75 41.3939 161.582 43.6733C160.414 45.9526 159.186 48.4008 157.99 51.0178C156.715 53.7549 155.591 56.5597 154.624 59.4196C154.125 60.907 153.71 62.4427 153.287 64.0105C152.864 65.5783 152.446 67.1702 152.015 68.7782C150.358 74.8183 149.042 80.9463 148.073 87.1335" fill="#E0E0E0"/>
<path d="M154.419 59.287C154.295 59.0491 154.198 58.7983 154.129 58.5392C153.964 58.0528 153.726 57.3332 153.484 56.4609C152.969 54.6921 152.337 52.2319 151.652 49.5143C150.968 46.7968 150.299 44.3486 149.76 42.5959C149.49 41.7196 149.265 41.012 149.103 40.5256C149.004 40.2767 148.931 40.018 148.886 39.7538C149.026 39.9812 149.14 40.224 149.224 40.4774C149.426 40.9517 149.683 41.6512 149.985 42.5236C150.585 44.2602 151.29 46.7084 151.978 49.4299L153.714 56.3966C153.926 57.2327 154.107 57.9349 154.258 58.5031C154.341 58.7574 154.395 59.0204 154.419 59.287Z" fill="#E0E0E0"/>
<path d="M177.101 51.5726C176.805 51.6828 176.499 51.7649 176.187 51.8178C175.599 51.9585 174.741 52.1555 173.694 52.4329C171.592 52.9715 168.713 53.8157 165.581 54.8851C162.448 55.9544 159.653 57.0599 157.656 57.9081C156.653 58.3101 155.852 58.688 155.296 58.9332C155.016 59.0789 154.722 59.1974 154.419 59.287C154.672 59.1041 154.941 58.9453 155.224 58.8126C155.764 58.5312 156.553 58.1372 157.543 57.687C159.524 56.7785 162.315 55.6448 165.456 54.5635C168.135 53.6357 170.861 52.8467 173.622 52.1997C174.681 51.9505 175.547 51.7977 176.147 51.6892C176.46 51.6196 176.78 51.5805 177.101 51.5726Z" fill="#E0E0E0"/>
<path d="M148.008 86.6149C147.93 86.5387 147.862 86.4521 147.807 86.3576C147.666 86.1446 147.497 85.8833 147.287 85.5536C146.836 84.8702 146.212 83.8652 145.459 82.615C143.949 80.1105 141.972 76.585 139.842 72.6655C137.712 68.746 135.767 65.2245 134.309 62.712L132.578 59.7211L132.111 58.9171C132.05 58.8246 132.001 58.7246 131.966 58.6196C132.045 58.6967 132.113 58.7847 132.167 58.8809L132.687 59.6849C133.138 60.3683 133.762 61.3733 134.515 62.6276C136.025 65.132 138.006 68.6576 140.152 72.5771C142.298 76.4966 144.223 80.0301 145.681 82.5627L147.412 85.5576C147.601 85.8833 147.754 86.1566 147.879 86.3616C147.932 86.4409 147.975 86.5258 148.008 86.6149Z" fill="#E0E0E0"/>
<path d="M177.544 72.1791C177.455 72.2474 177.357 72.3041 177.254 72.3479L176.4 72.762L173.239 74.3137C170.57 75.6283 166.901 77.4815 162.855 79.5397C158.808 81.598 155.115 83.415 152.417 84.6733C151.068 85.3004 149.973 85.7989 149.196 86.1285L148.314 86.4983C148.214 86.5508 148.107 86.5874 147.996 86.6069C148.086 86.5399 148.183 86.4832 148.286 86.438L149.14 86.0079L152.305 84.4562C154.974 83.1457 158.639 81.2924 162.689 79.2302C166.74 77.1679 170.425 75.3549 173.123 74.0966C174.471 73.4695 175.567 72.971 176.344 72.6414L177.226 72.2716C177.326 72.2247 177.434 72.1935 177.544 72.1791Z" fill="#E0E0E0"/>
<path d="M228.803 44.8833C228.803 38.3227 221.902 34.17 214.863 37.4543C213.272 38.1991 211.971 39.4448 211.158 41C209.391 44.425 210.172 48.3325 211.779 51.5806L217.255 65.4376C217.427 65.8796 217.73 66.2593 218.122 66.5269C218.514 66.7946 218.978 66.9379 219.453 66.9379C219.928 66.9379 220.393 66.7946 220.785 66.5269C221.177 66.2593 221.479 65.8796 221.652 65.4376L227.023 51.5042C228.88 47.2471 228.803 44.8833 228.803 44.8833ZM222.191 50.5917C217.46 53.3374 212.664 48.2601 215.258 43.2512C215.596 42.5829 216.118 42.0251 216.764 41.6432C221.495 38.8975 226.287 43.9748 223.693 48.9837C223.357 49.6517 222.835 50.2096 222.191 50.5917Z" fill="#F5F5F5"/>
<path d="M285.893 178.52C285.893 178.58 225.493 178.625 151.024 178.625C76.555 178.625 16.1308 178.58 16.1308 178.52C16.1308 178.46 76.5067 178.416 151.024 178.416C225.542 178.416 285.893 178.464 285.893 178.52Z" fill="#263238"/>
<path d="M130.528 178.52L77.006 178.275C73.9159 178.256 70.9595 177.015 68.7843 174.824C66.6091 172.632 65.3925 169.67 65.4011 166.585L65.9689 32.6263C65.987 29.54 67.2302 26.5868 69.426 24.4142C71.6218 22.2417 74.591 21.027 77.6825 21.0367L131.205 21.2819C134.294 21.301 137.249 22.541 139.424 24.7305C141.599 26.9199 142.816 29.8804 142.81 32.964L142.242 166.922C142.226 170.01 140.984 172.965 138.788 175.14C136.592 177.314 133.621 178.53 130.528 178.52Z" fill="#455A64"/>
<path d="M131.128 25.9049L120.752 25.8567C120.069 25.8693 119.418 26.1519 118.943 26.6425C118.469 27.1331 118.208 27.7916 118.219 28.4737V30.355C118.224 30.6927 118.163 31.0281 118.038 31.3421C117.913 31.656 117.728 31.9424 117.492 32.1847C117.257 32.427 116.976 32.6206 116.665 32.7543C116.354 32.888 116.02 32.9593 115.682 32.964L95.4521 32.8716C94.7693 32.8516 94.1221 32.5625 93.6521 32.0677C93.182 31.5728 92.9273 30.9122 92.9435 30.2304V28.3491C92.9555 27.6717 92.6998 27.0169 92.2318 26.5264C91.7638 26.0359 91.1212 25.749 90.443 25.728H86.7948L77.7147 25.6597C75.5496 25.649 73.4689 26.4971 71.93 28.0176C70.3911 29.5381 69.52 31.6065 69.5083 33.768L68.9567 164.523C68.947 166.684 69.7976 168.761 71.3214 170.296C72.8452 171.832 74.9174 172.701 77.0825 172.711L130.5 172.956C131.573 172.961 132.635 172.755 133.628 172.35C134.621 171.944 135.524 171.348 136.285 170.594C137.047 169.841 137.652 168.945 138.067 167.957C138.482 166.97 138.698 165.911 138.703 164.84L139.254 34.0896C139.259 33.0195 139.053 31.959 138.647 30.9685C138.241 29.9781 137.644 29.0771 136.889 28.3171C136.135 27.5571 135.238 26.9529 134.249 26.539C133.261 26.1251 132.2 25.9096 131.128 25.9049Z" fill="#FAFAFA"/>
<path d="M69.4439 49.4661H78.1979L86.0096 57.2689L77.8878 65.3773L69.5365 57.0358L69.4439 49.4661Z" fill="#EBEBEB"/>
<path d="M87.7934 53.8439L83.4044 49.4661H93.2777L87.7934 53.8439Z" fill="#EBEBEB"/>
<path d="M91.6308 57.4217L99.3177 49.7475H126.176C126.176 49.7475 130.287 68.0787 114.096 79.8493L91.6308 57.4217Z" fill="#EBEBEB"/>
<path d="M88.341 59.8658L80.1186 68.0787L102.873 90.7957L111.096 82.3095L88.341 59.8658Z" fill="#EBEBEB"/>
<path d="M69.3432 72.7339L74.4974 67.3953L69.4439 62.3502L69.3432 72.7339Z" fill="#EBEBEB"/>
<path d="M77.5818 70.543L69.6654 78.4463V89.4289L86.0096 106.124L99.8573 93.26L77.5818 70.543Z" fill="#EBEBEB"/>
<path d="M117.176 82.1527C117.176 82.1527 134.136 69.739 128.652 49.7475H139.198L139.069 106.172L117.176 82.1527Z" fill="#EBEBEB"/>
<path d="M113.987 85.4089L105.789 93.9555L130.931 119.06L138.622 110.924L113.987 85.4089Z" fill="#EBEBEB"/>
<path d="M102.362 96.2951L89.4725 109.071L115.251 134.626L128.116 122.208L102.362 96.2951Z" fill="#EBEBEB"/>
<path d="M95.6051 160.306L115.312 139.916L134.056 158.991L95.6051 160.306Z" fill="#EBEBEB"/>
<path d="M118.384 137.283L138.92 116.982C138.92 117.882 138.743 159.075 138.743 159.075L118.384 137.283Z" fill="#EBEBEB"/>
<path d="M100.816 125.882L112.457 137.504L89.4725 161.182L78.8542 148.467L100.816 125.882Z" fill="#EBEBEB"/>
<path d="M69.3634 150.115C70.4626 150.006 98.6131 123.687 98.6131 123.687L69.3634 93.4288V150.115Z" fill="#EBEBEB"/>
<path d="M68.9567 156.113L75.7335 150.115L85.1197 161.182H68.9567V156.949" fill="#EBEBEB"/>
<path d="M77.7147 41.4985C76.9985 40.9709 76.3252 40.3875 75.7013 39.7538C75.7013 39.4483 75.7013 39.6694 75.7013 39.601L75.7295 39.5769L75.7778 39.5327L75.8785 39.4402L76.0718 39.2593L76.4382 38.9217L77.0704 38.3589C77.2619 38.1636 77.4785 37.9946 77.7147 37.8564C77.571 38.0749 77.3975 38.2725 77.1993 38.4433L76.5953 39.0382L76.2369 39.384L76.0436 39.5689L75.947 39.6613L75.8946 39.7056L75.8705 39.7297V39.5769C76.5343 40.1685 77.151 40.811 77.7147 41.4985Z" fill="#263238"/>
<path d="M133.383 38.4312C133.384 38.5182 133.359 38.6035 133.311 38.6762C133.263 38.7488 133.195 38.8056 133.114 38.8393C133.034 38.8729 132.945 38.882 132.86 38.8652C132.774 38.8484 132.696 38.8066 132.634 38.7451C132.572 38.6835 132.531 38.6051 132.514 38.5197C132.497 38.4344 132.506 38.3459 132.54 38.2657C132.573 38.1855 132.63 38.1171 132.703 38.0692C132.776 38.0214 132.861 37.9963 132.948 37.9971C133.064 37.9971 133.174 38.0428 133.256 38.1242C133.338 38.2056 133.383 38.3161 133.383 38.4312Z" fill="#263238"/>
<path d="M133.259 39.6252C133.32 39.6864 133.362 39.7645 133.379 39.8495C133.396 39.9345 133.387 40.0227 133.354 40.1028C133.321 40.1829 133.265 40.2514 133.192 40.2996C133.12 40.3478 133.035 40.3735 132.948 40.3735C132.862 40.3735 132.777 40.3478 132.705 40.2996C132.632 40.2514 132.576 40.1829 132.543 40.1028C132.51 40.0227 132.501 39.9345 132.518 39.8495C132.535 39.7645 132.577 39.6864 132.638 39.6252C132.721 39.5441 132.833 39.4987 132.948 39.4987C133.064 39.4987 133.176 39.5441 133.259 39.6252Z" fill="#263238"/>
<path d="M133.383 41.4341C133.373 41.5426 133.322 41.6433 133.242 41.7165C133.161 41.7898 133.056 41.8304 132.946 41.8304C132.837 41.8304 132.732 41.7898 132.651 41.7165C132.571 41.6433 132.52 41.5426 132.51 41.4341C132.504 41.3733 132.511 41.312 132.53 41.254C132.549 41.1961 132.58 41.1428 132.622 41.0976C132.663 41.0524 132.713 41.0162 132.769 40.9915C132.825 40.9668 132.885 40.954 132.946 40.954C133.008 40.954 133.068 40.9668 133.124 40.9915C133.18 41.0162 133.23 41.0524 133.271 41.0976C133.312 41.1428 133.344 41.1961 133.363 41.254C133.382 41.312 133.389 41.3733 133.383 41.4341Z" fill="#263238"/>
<path d="M114.514 40.2121H95.6776V41.7799H114.514V40.2121Z" fill="#263238"/>
<path d="M112.465 68.34C112.465 61.0156 104.758 56.3765 96.8977 60.0468C95.1192 60.8762 93.6643 62.2679 92.7583 64.0065C90.7812 67.8295 91.655 72.1952 93.4469 75.8212L99.5674 91.3022C99.7607 91.7955 100.098 92.2192 100.537 92.5178C100.975 92.8165 101.493 92.9762 102.024 92.9762C102.554 92.9762 103.072 92.8165 103.511 92.5178C103.949 92.2192 104.287 91.7955 104.48 91.3022L110.476 75.7408C112.553 70.9972 112.465 68.34 112.465 68.34ZM105.096 74.7318C99.813 77.7991 94.4575 72.1309 97.3527 66.535C97.7342 65.7971 98.3161 65.1813 99.0318 64.7582C104.319 61.6909 109.674 67.3591 106.775 72.955C106.395 73.6941 105.813 74.3102 105.096 74.7318Z" fill="#E3482B"/>
<path d="M272.634 124.266H49.226V156.993H272.634V124.266Z" fill="#E3482B"/>
<g opacity="0.5">
<path d="M272.634 124.266H49.226V156.993H272.634V124.266Z" fill="black"/>
</g>
<path d="M80.6957 178.229C92.5665 177.431 101.542 167.177 100.743 155.326C99.9444 143.475 89.6736 134.514 77.8027 135.312C65.9319 136.109 56.9563 146.363 57.7552 158.214C58.554 170.066 68.8248 179.026 80.6957 178.229Z" fill="#263238"/>
<path d="M57.7102 156.406C57.7102 156.426 57.7102 156.446 57.7102 156.462C57.6692 159.287 58.1858 162.091 59.2306 164.716C60.2754 167.341 61.8278 169.735 63.7992 171.761C65.7707 173.787 68.1225 175.406 70.7205 176.525C73.3185 177.643 76.1118 178.24 78.9408 178.281C81.7698 178.322 84.5792 177.806 87.2086 176.763C89.8379 175.72 92.2358 174.17 94.2652 172.202C96.2946 170.234 97.9158 167.886 99.0363 165.292C100.157 162.698 100.755 159.91 100.796 157.086C100.796 157.065 100.796 157.045 100.796 157.029L57.7102 156.406Z" fill="#263238"/>
<path d="M64.1247 156.555C64.0804 159.541 64.9242 162.474 66.5494 164.981C68.1747 167.489 70.5083 169.459 73.2552 170.642C76.002 171.825 79.0387 172.169 81.981 171.629C84.9234 171.089 87.6393 169.69 89.7852 167.609C91.9311 165.528 93.4106 162.858 94.0366 159.938C94.6625 157.017 94.4068 153.977 93.3018 151.201C92.1968 148.426 90.2921 146.04 87.8286 144.345C85.3651 142.651 82.4536 141.723 79.4622 141.681C75.453 141.624 71.5852 143.159 68.7091 145.948C65.833 148.737 64.184 152.552 64.1247 156.555Z" fill="#FAFAFA"/>
<path d="M79.4622 141.677C75.4527 141.619 71.5843 143.153 68.708 145.943C65.8316 148.732 64.183 152.548 64.1247 156.551L94.369 156.989C94.426 152.985 92.8875 149.122 90.092 146.251C87.2964 143.379 83.4728 141.734 79.4622 141.677Z" fill="#E0E0E0"/>
<path d="M70.0358 156.639C70.0089 158.459 70.523 160.245 71.5132 161.772C72.5033 163.3 73.925 164.5 75.5983 165.22C77.2716 165.941 79.1215 166.15 80.9139 165.821C82.7063 165.492 84.3606 164.64 85.6677 163.372C86.9748 162.104 87.876 160.478 88.2571 158.699C88.6382 156.92 88.4823 155.067 87.809 153.377C87.1356 151.686 85.9752 150.233 84.4744 149.201C82.9736 148.168 81.1999 147.604 79.3777 147.578C78.1683 147.561 76.9673 147.781 75.8433 148.227C74.7193 148.673 73.6942 149.335 72.8267 150.177C71.9592 151.018 71.2663 152.022 70.7874 153.131C70.3085 154.24 70.0531 155.432 70.0358 156.639Z" fill="#263238"/>
<path d="M245.235 178.221C257.112 177.533 266.182 167.363 265.493 155.505C264.804 143.647 254.617 134.592 242.739 135.279C230.862 135.967 221.791 146.138 222.48 157.996C223.169 169.854 233.357 178.909 245.235 178.221Z" fill="#263238"/>
<path d="M222.441 156.406C222.441 156.426 222.441 156.446 222.441 156.462C222.4 159.287 222.917 162.091 223.962 164.716C225.006 167.341 226.559 169.735 228.53 171.761C230.502 173.787 232.853 175.406 235.451 176.525C238.049 177.643 240.843 178.24 243.672 178.281C246.501 178.322 249.31 177.806 251.939 176.763C254.569 175.72 256.967 174.17 258.996 172.202C261.025 170.234 262.647 167.886 263.767 165.292C264.888 162.698 265.485 159.91 265.526 157.086C265.526 157.065 265.526 157.045 265.526 157.029L222.441 156.406Z" fill="#263238"/>
<path d="M228.856 156.555C228.811 159.541 229.655 162.474 231.28 164.981C232.906 167.489 235.239 169.459 237.986 170.642C240.733 171.825 243.77 172.169 246.712 171.629C249.654 171.089 252.37 169.69 254.516 167.609C256.662 165.528 258.142 162.858 258.767 159.938C259.393 157.017 259.138 153.977 258.033 151.201C256.928 148.426 255.023 146.04 252.56 144.345C250.096 142.651 247.185 141.723 244.193 141.681C240.184 141.624 236.316 143.159 233.44 145.948C230.564 148.737 228.915 152.552 228.856 156.555Z" fill="#FAFAFA"/>
<path d="M244.193 141.677C240.184 141.619 236.315 143.153 233.439 145.943C230.563 148.732 228.914 152.548 228.856 156.551L259.1 156.989C259.157 152.985 257.618 149.122 254.823 146.251C252.027 143.379 248.204 141.734 244.193 141.677Z" fill="#E0E0E0"/>
<path d="M234.755 156.639C234.728 158.459 235.242 160.245 236.232 161.772C237.222 163.3 238.644 164.5 240.317 165.22C241.991 165.941 243.84 166.15 245.633 165.821C247.425 165.492 249.079 164.64 250.387 163.372C251.694 162.104 252.595 160.478 252.976 158.699C253.357 156.92 253.201 155.067 252.528 153.377C251.854 151.686 250.694 150.233 249.193 149.201C247.692 148.168 245.919 147.604 244.097 147.578C242.887 147.561 241.686 147.781 240.562 148.227C239.438 148.673 238.413 149.335 237.546 150.177C236.678 151.018 235.985 152.022 235.506 153.131C235.027 154.24 234.772 155.432 234.755 156.639Z" fill="#263238"/>
<path d="M107.484 105.855C107.484 105.855 75.7617 108.19 63.9958 110.823C55.7089 112.677 39.7311 115.881 39.9244 125.914L41.1928 133.11C41.1928 133.11 35.2696 135.812 35.2696 142.71C35.2696 149.608 33.824 160.302 47.6596 160.732C49.9387 160.8 54.2674 160.732 54.2674 160.732C54.2674 160.732 51.6138 131.313 78.6811 130.453C106.219 129.577 104.391 160.462 104.391 160.462H219.324C219.324 160.462 214.605 130.373 244.25 130.312C273.894 130.252 269.384 160.659 269.384 160.659C269.384 160.659 280.288 161.6 285.362 152.45C290.435 143.301 289.119 136.772 289.119 136.772L288.95 130.988C288.917 130.038 288.525 129.137 287.853 128.465C287.18 127.793 286.277 127.402 285.326 127.37C285.326 127.37 287.307 112.809 284.267 110.289C281.226 107.768 264.568 92.5605 264.568 92.5605L265.373 92.066C265.672 91.8776 265.911 91.6086 266.063 91.2901C266.214 90.9717 266.272 90.6168 266.23 90.2668C266.188 89.9167 266.047 89.5857 265.824 89.3122C265.602 89.0386 265.306 88.8338 264.971 88.7214C258.645 86.5506 246.138 82.2532 243.199 81.2281C242.758 81.0719 242.299 80.9746 241.834 80.9387C240.078 80.806 235.109 80.4925 225.989 80.396C214.879 80.2754 170.771 80.396 170.771 80.396C170.771 80.396 155.59 81.6422 147.134 85.3567C138.268 89.2641 107.484 105.855 107.484 105.855Z" fill="#E3482B"/>
<g opacity="0.4">
<path d="M43.3149 141.906C42.1632 141.673 40.3995 141.653 39.5217 142.429C38.8694 143.007 38.6963 143.944 38.5996 144.808C38.4147 145.992 38.442 147.2 38.6802 148.374C38.8016 148.961 39.0432 149.516 39.3896 150.005C39.7361 150.494 40.18 150.907 40.6935 151.216C41.7485 151.787 43.19 151.695 44.0074 150.814C44.7564 150.01 44.841 148.804 44.8128 147.731C44.7846 146.179 44.9094 144.865 44.6235 143.341C44.5605 143.018 44.4226 142.713 44.2209 142.453C44.1205 142.297 43.9855 142.166 43.8263 142.07C43.6671 141.975 43.4879 141.917 43.3028 141.902" fill="black"/>
</g>
<path d="M41.2009 133.11C44.5671 133.11 47.8328 132.925 51.195 132.708C51.5613 132.724 51.9221 132.615 52.2178 132.399C52.3531 132.231 52.4537 132.038 52.5138 131.831C52.5739 131.624 52.5924 131.407 52.5681 131.193C52.5681 129.392 52.4957 127.342 51.1266 126.168C50.289 125.452 49.1414 125.227 48.0422 125.127C45.3123 124.832 42.551 125.106 39.9325 125.931L41.2009 133.11Z" fill="#FAFAFA"/>
<path d="M111.136 159.542C111.136 159.542 111.136 159.445 111.112 159.252C111.088 159.059 111.08 158.774 111.055 158.408C111.015 157.66 110.955 156.571 110.878 155.164C110.802 153.757 110.705 152.032 110.504 150.038C110.296 147.781 109.899 145.545 109.316 143.353C108.581 140.706 107.491 138.171 106.074 135.816C104.471 133.096 102.339 130.724 99.805 128.837C94.373 124.978 87.0324 122.807 79.3535 122.702C71.6747 122.598 64.33 125.022 59.0309 129.086C56.4909 130.962 54.2659 133.23 52.4393 135.804C50.8444 138.038 49.5477 140.471 48.5817 143.04C47.7849 145.163 47.2377 147.371 46.9509 149.62C46.7264 151.316 46.6603 153.03 46.7536 154.738C46.8197 155.817 46.9542 156.891 47.1563 157.954C47.2207 158.312 47.2731 158.589 47.3053 158.782C47.3375 158.975 47.3496 159.067 47.3496 159.067C47.3496 159.067 47.3254 158.975 47.2851 158.79L47.112 157.986C46.8928 156.925 46.7475 155.851 46.6771 154.77C46.5676 153.056 46.6216 151.336 46.8382 149.632C47.1157 147.372 47.6562 145.151 48.4489 143.016C49.4114 140.426 50.7082 137.974 52.3064 135.719C54.1372 133.125 56.372 130.839 58.9262 128.95C64.2495 124.865 71.6102 122.417 79.3495 122.518C87.0887 122.618 94.4414 124.809 99.9177 128.704C102.467 130.61 104.609 133.004 106.219 135.747C107.634 138.121 108.718 140.675 109.441 143.341C110.02 145.542 110.409 147.788 110.604 150.055C110.794 152.065 110.878 153.777 110.943 155.184C111.007 156.591 111.051 157.684 111.084 158.432C111.084 158.798 111.108 159.079 111.116 159.276C111.124 159.473 111.136 159.542 111.136 159.542Z" fill="white"/>
<path d="M112.344 160.04V159.799L112.32 159.087C112.3 158.452 112.272 157.524 112.231 156.31C112.163 153.87 112.062 150.304 111.933 145.765C111.804 141.227 111.655 135.715 111.482 129.404C111.438 127.824 111.398 126.188 111.349 124.519C111.321 123.667 111.359 122.814 111.462 121.967L111.643 120.672L111.909 119.374C112.326 117.6 112.927 115.874 113.701 114.224C114.498 112.495 115.484 110.858 116.64 109.344L136.544 96.8257L141.92 93.4489C143.732 92.2469 145.634 91.1865 147.61 90.2771C149.63 89.3273 151.703 88.4938 153.819 87.7807C154.874 87.4109 155.957 87.1094 157.04 86.7878C158.123 86.4662 159.226 86.2009 160.346 85.9838C164.567 85.0823 168.858 84.5443 173.171 84.3758C177.31 84.1778 181.456 84.1912 185.593 84.416H185.71L185.682 84.5326L180.334 108.415C179.346 110.035 178.536 111.756 177.918 113.549C177.31 115.249 177.036 117.051 177.113 118.855C177.25 120.62 177.298 122.349 177.342 124.025C177.387 125.701 177.407 127.325 177.439 128.905C177.532 135.217 177.556 140.72 177.572 145.255C177.588 149.789 177.572 153.355 177.572 155.791C177.572 156.997 177.572 157.934 177.572 158.569C177.572 158.878 177.572 159.116 177.572 159.28C177.572 159.445 177.572 159.522 177.572 159.522C177.572 159.522 177.572 159.437 177.572 159.28C177.572 159.124 177.572 158.878 177.572 158.569C177.572 157.934 177.572 157.005 177.572 155.791C177.572 153.355 177.536 149.789 177.508 145.259C177.479 140.728 177.439 135.209 177.33 128.905C177.298 127.329 177.263 125.704 177.226 124.029C177.177 122.353 177.129 120.632 176.988 118.867C176.906 117.041 177.18 115.215 177.793 113.493C178.407 111.685 179.218 109.95 180.209 108.319V108.347C181.848 100.994 183.64 92.9705 185.537 84.4602L185.629 84.5808C181.501 84.3587 177.364 84.348 173.235 84.5486C168.933 84.7149 164.652 85.2529 160.443 86.1566C159.327 86.3777 158.24 86.6873 157.149 86.9606C156.057 87.234 154.99 87.5837 153.927 87.9496C151.811 88.6638 149.738 89.4986 147.718 90.45C145.753 91.3533 143.86 92.407 142.057 93.6017L136.677 96.9785L116.773 109.469V109.449C115.619 110.953 114.636 112.58 113.842 114.301C113.068 115.938 112.469 117.652 112.054 119.414C111.148 122.859 111.603 126.248 111.611 129.404L112.014 145.765C112.123 150.3 112.207 153.87 112.263 156.306C112.292 157.512 112.308 158.452 112.324 159.087C112.324 159.396 112.324 159.633 112.324 159.799C112.344 159.96 112.344 160.04 112.344 160.04Z" fill="#263238"/>
<path d="M185.448 85.0793H185.637L186.189 85.0592L188.327 85.0069L196.256 84.8542L222.985 84.3959H223.037L223.069 84.4361L226.814 89.0149C230.607 93.666 234.223 98.088 237.509 102.108L238.717 103.595C239.108 104.094 239.444 104.633 239.72 105.203C240.218 106.261 240.489 107.412 240.515 108.58C240.541 109.749 240.32 110.911 239.869 111.989L238.661 114.803L234.964 123.342L233.949 125.657L233.68 126.26C233.619 126.393 233.583 126.461 233.583 126.461C233.583 126.461 233.607 126.389 233.659 126.252C233.712 126.115 233.804 125.902 233.909 125.641C234.139 125.102 234.465 124.314 234.888 123.309L238.512 114.747C239.204 112.93 240.424 111.016 240.34 108.685C240.322 107.5 240.047 106.333 239.534 105.264C239.264 104.709 238.935 104.184 238.552 103.7L237.344 102.213L226.637 89.1314L222.896 84.5527L222.977 84.5929L196.244 84.9949L188.315 85.0873H186.177H185.629L185.448 85.0793Z" fill="#263238"/>
<path d="M171.939 120.568C171.939 120.568 172.051 120.568 172.257 120.52C172.559 120.466 172.847 120.351 173.102 120.182C173.508 119.918 173.812 119.524 173.964 119.064C174.056 118.779 174.095 118.479 174.077 118.18C174.067 117.846 173.982 117.519 173.827 117.223C173.647 116.886 173.38 116.604 173.054 116.405C172.727 116.207 172.353 116.099 171.971 116.094H169.257H163.036C162.51 116.094 162.004 116.292 161.618 116.648C161.242 116.991 161.001 117.458 160.942 117.963C160.881 118.451 160.971 118.946 161.2 119.382C161.433 119.791 161.796 120.112 162.23 120.294C162.661 120.442 163.118 120.498 163.571 120.459H164.888H167.256L170.682 120.491L171.613 120.512C171.722 120.509 171.831 120.517 171.939 120.536C171.83 120.548 171.722 120.555 171.613 120.556H170.682L167.256 120.588H164.888H163.571C163.342 120.588 163.12 120.588 162.875 120.588C162.628 120.573 162.386 120.517 162.158 120.423C161.68 120.227 161.282 119.878 161.026 119.43C160.771 118.96 160.671 118.421 160.741 117.891C160.804 117.327 161.073 116.805 161.496 116.427C161.919 116.048 162.467 115.838 163.036 115.836H169.257H171.975C172.386 115.845 172.787 115.964 173.135 116.181C173.484 116.399 173.768 116.706 173.956 117.07C174.117 117.387 174.204 117.736 174.21 118.092C174.223 118.405 174.178 118.719 174.077 119.016C173.907 119.494 173.579 119.899 173.147 120.166C172.88 120.335 172.579 120.441 172.265 120.475C172.16 120.519 172.051 120.55 171.939 120.568Z" fill="#263238"/>
<path d="M231.533 120.568C231.533 120.568 231.646 120.568 231.851 120.52C232.153 120.466 232.441 120.351 232.697 120.182C233.103 119.918 233.407 119.524 233.559 119.064C233.651 118.779 233.689 118.479 233.671 118.18C233.662 117.846 233.577 117.519 233.422 117.223C233.242 116.886 232.975 116.604 232.648 116.405C232.322 116.207 231.948 116.099 231.566 116.094H228.852H222.63C222.105 116.094 221.599 116.292 221.213 116.648C220.836 116.991 220.596 117.458 220.537 117.963C220.475 118.451 220.565 118.946 220.794 119.382C221.028 119.791 221.39 120.112 221.825 120.294C222.256 120.442 222.712 120.498 223.166 120.459H224.483H226.85L230.277 120.491L231.207 120.512C231.316 120.509 231.426 120.517 231.533 120.536C231.425 120.548 231.316 120.555 231.207 120.556H230.277L226.85 120.588H224.483H223.166C222.936 120.588 222.715 120.588 222.469 120.588C222.223 120.573 221.981 120.517 221.753 120.423C221.275 120.227 220.877 119.878 220.621 119.43C220.366 118.96 220.265 118.421 220.335 117.891C220.398 117.327 220.667 116.805 221.091 116.427C221.514 116.048 222.062 115.838 222.63 115.836H228.852H231.57C231.98 115.845 232.381 115.964 232.73 116.181C233.079 116.399 233.362 116.706 233.551 117.07C233.712 117.387 233.799 117.736 233.804 118.092C233.817 118.405 233.772 118.719 233.671 119.016C233.501 119.494 233.173 119.899 232.741 120.166C232.475 120.335 232.173 120.441 231.859 120.475C231.755 120.519 231.645 120.55 231.533 120.568Z" fill="#263238"/>
<path d="M283.755 110.864H271.836C271.035 110.863 270.249 111.082 269.563 111.495C268.877 111.908 268.316 112.5 267.942 113.207C267.635 113.793 267.464 114.44 267.442 115.1C267.42 115.76 267.547 116.417 267.814 117.022L272.485 127.623L284.42 127.506C284.42 127.506 286.96 114.067 283.755 110.864Z" fill="#FAFAFA"/>
<path d="M118.223 109.364L179.722 108.23L219.747 107.499L232.947 99.889C233.198 99.7431 233.415 99.5456 233.583 99.3097C233.752 99.0738 233.869 98.8048 233.925 98.5205C233.982 98.2362 233.978 97.9431 233.912 97.6606C233.847 97.3781 233.722 97.1127 233.547 96.882L225.328 86.1044C224.906 85.5495 224.362 85.0986 223.738 84.7864C223.114 84.4742 222.426 84.309 221.728 84.3034L176.96 83.9416C176.96 83.9416 160.104 82.9607 146.82 90.3736C132.852 98.2006 118.223 109.364 118.223 109.364Z" fill="#263238"/>
<path d="M146.406 85.0551C146.406 85.0551 149.49 86.4581 147.485 87.7566C145.479 89.055 114.321 108.661 114.321 108.661L107.158 105.424C119.846 98.3774 132.659 91.5233 146.406 85.0551Z" fill="#455A64"/>
<path d="M115.328 109.159L115.134 109.207L114.567 109.332L112.38 109.782C110.48 110.16 107.725 110.691 104.327 111.278C97.4816 112.451 88.0109 113.818 77.4731 114.727C74.8356 114.956 72.2384 115.129 69.7741 115.306C67.3098 115.483 64.8857 115.623 62.6066 115.828C58.0444 116.23 53.9614 116.89 50.6434 117.874C48.0061 118.607 45.4681 119.657 43.0853 121.002C42.2277 121.452 41.6156 121.894 41.1847 122.16L40.6935 122.469L40.5203 122.57C40.572 122.528 40.6258 122.489 40.6814 122.453L41.1606 122.124C41.5874 121.846 42.1914 121.392 43.0451 120.918C45.4134 119.536 47.9457 118.455 50.583 117.702C53.909 116.693 58.0041 116.013 62.5704 115.607C64.8535 115.39 67.2534 115.237 69.7419 115.072C72.2303 114.908 74.8034 114.715 77.4368 114.486C87.9706 113.577 97.4534 112.234 104.287 111.097C107.705 110.53 110.46 110.023 112.364 109.67L114.559 109.268L115.13 109.163L115.328 109.159Z" fill="#263238"/>
<path d="M288.519 136.652C288.519 136.712 284.42 136.756 279.366 136.756C274.313 136.756 270.209 136.712 270.209 136.652C270.209 136.592 274.309 136.547 279.366 136.547C284.424 136.547 288.519 136.596 288.519 136.652Z" fill="#263238"/>
<path d="M213.53 147.096C213.53 147.156 190.393 147.2 161.856 147.2C133.319 147.2 110.178 147.156 110.178 147.096C110.178 147.036 133.311 146.991 161.856 146.991C190.401 146.991 213.53 147.04 213.53 147.096Z" fill="#263238"/>
<path d="M51.5413 136.998C51.5413 137.058 48.2677 137.102 44.2329 137.102C40.1982 137.102 36.9245 137.058 36.9245 136.998C36.9245 136.937 40.1982 136.893 44.2329 136.893C48.2677 136.893 51.5413 136.941 51.5413 136.998Z" fill="#263238"/>
<path d="M264.258 92.1424C264.258 92.1424 261.512 95.2097 262.591 97.4609C263.67 99.7121 274.828 107.599 274.828 107.599L282.926 109.115L264.258 92.1424Z" fill="#455A64"/>
<path d="M187.268 86.6471L185.448 106.281L218.032 105.352L231.163 97.7302L222.663 86.6471H187.268Z" fill="#455A64"/>
<path d="M125.938 107.286C125.938 107.286 145.596 93.1112 153.352 90.2932C160.837 87.5757 164.739 86.8923 171.77 86.6752C178.49 86.4822 182.585 86.6752 182.585 86.6752L177.391 106.635L125.938 107.286Z" fill="#455A64"/>
<path d="M123.063 107.334C123.063 106.724 123.226 106.124 123.535 105.597C123.843 105.071 124.286 104.635 124.819 104.335L129.337 101.802C130.623 101.079 132.076 100.7 133.552 100.701C134.462 100.702 135.365 100.846 136.23 101.127C137.172 101.452 137.991 102.056 138.58 102.859C139.168 103.661 139.498 104.623 139.524 105.617C139.549 106.285 139.44 106.951 139.201 107.575C138.963 108.2 138.6 108.77 138.136 109.251C137.672 109.732 137.115 110.115 136.499 110.376C135.883 110.637 135.22 110.772 134.551 110.771H126.498C125.586 110.769 124.712 110.406 124.069 109.762C123.425 109.117 123.063 108.244 123.063 107.334Z" fill="#E3482B"/>
<path d="M123.063 107.334C123.063 107.334 123.063 107.487 123.115 107.768C123.176 108.182 123.313 108.581 123.518 108.946C123.843 109.52 124.323 109.992 124.903 110.309C125.265 110.498 125.658 110.62 126.063 110.671C126.525 110.705 126.989 110.714 127.452 110.699L134.342 110.675C134.995 110.692 135.645 110.586 136.258 110.361C136.906 110.119 137.494 109.744 137.986 109.259C138.477 108.774 138.86 108.19 139.109 107.547C139.363 106.868 139.466 106.143 139.411 105.42C139.357 104.709 139.147 104.017 138.796 103.396C138.444 102.774 137.96 102.237 137.378 101.823C136.815 101.435 136.182 101.161 135.513 101.019C133.677 100.585 131.749 100.77 130.029 101.545C129.51 101.778 129.035 102.072 128.563 102.325L127.219 103.073L124.903 104.351C124.321 104.664 123.84 105.137 123.518 105.714C123.315 106.08 123.179 106.478 123.115 106.892C123.075 107.173 123.079 107.326 123.067 107.326C123.052 107.179 123.052 107.031 123.067 106.884C123.112 106.462 123.238 106.052 123.437 105.678C123.754 105.077 124.24 104.583 124.835 104.255L127.134 102.948L128.471 102.188C128.938 101.931 129.413 101.634 129.945 101.384C131.697 100.579 133.668 100.381 135.546 100.822C136.238 100.959 136.897 101.232 137.482 101.626C138.091 102.056 138.598 102.616 138.965 103.264C139.332 103.912 139.552 104.633 139.609 105.376C139.668 106.13 139.56 106.887 139.294 107.595C139.035 108.267 138.634 108.877 138.121 109.383C137.607 109.888 136.991 110.28 136.315 110.53C135.679 110.759 135.005 110.866 134.33 110.847L127.44 110.827C126.971 110.837 126.502 110.823 126.035 110.783C125.611 110.724 125.201 110.588 124.827 110.381C124.233 110.05 123.747 109.556 123.425 108.958C123.229 108.583 123.104 108.173 123.059 107.752C123.049 107.613 123.051 107.473 123.063 107.334Z" fill="#263238"/>
<path d="M274.514 159.723C274.514 159.723 274.514 159.63 274.514 159.445C274.514 159.26 274.546 158.983 274.57 158.641C274.595 158.3 274.635 157.837 274.659 157.315C274.683 156.792 274.699 156.181 274.719 155.502C274.739 154.822 274.719 154.058 274.719 153.23C274.719 152.402 274.659 151.498 274.546 150.533C274.363 148.346 273.974 146.182 273.382 144.069C273.034 142.836 272.605 141.627 272.098 140.451C271.559 139.18 270.91 137.958 270.157 136.801C268.479 134.249 266.344 132.027 263.859 130.248C261.125 128.266 258.072 126.762 254.832 125.802C251.473 124.777 247.817 124.403 244.097 124.375C240.467 124.342 236.855 124.866 233.386 125.931C231.743 126.449 230.148 127.106 228.618 127.896C227.159 128.67 225.774 129.574 224.479 130.598C222.071 132.481 219.926 134.676 218.1 137.126C217.298 138.251 216.589 139.439 215.982 140.68C215.429 141.83 214.939 143.009 214.517 144.213C213.23 147.842 212.447 151.629 212.189 155.469C212.125 156.832 212.133 157.881 212.169 158.613C212.189 158.967 212.205 159.236 212.213 159.417C212.221 159.598 212.213 159.694 212.213 159.694C212.213 159.694 212.213 159.602 212.181 159.417C212.149 159.232 212.141 158.955 212.113 158.613C212.059 157.565 212.059 156.514 212.113 155.465C212.335 151.604 213.098 147.792 214.38 144.141C214.803 142.932 215.289 141.746 215.837 140.587C216.45 139.338 217.16 138.139 217.963 137.002C219.795 134.536 221.946 132.324 224.362 130.425C225.665 129.393 227.058 128.481 228.525 127.699C230.066 126.903 231.671 126.24 233.325 125.717C236.814 124.641 240.449 124.11 244.101 124.146C247.837 124.174 251.51 124.548 254.896 125.585C258.157 126.554 261.23 128.071 263.98 130.071C265.254 131.007 266.445 132.051 267.54 133.191C268.58 134.26 269.507 135.433 270.306 136.692C271.061 137.86 271.712 139.092 272.251 140.374C272.757 141.55 273.184 142.759 273.527 143.992C274.115 146.116 274.497 148.292 274.667 150.489C274.776 151.453 274.776 152.358 274.82 153.19C274.864 154.022 274.82 154.798 274.82 155.465C274.82 156.133 274.76 156.756 274.735 157.282C274.711 157.809 274.659 158.247 274.627 158.609C274.595 158.971 274.57 159.232 274.554 159.413C274.538 159.594 274.514 159.723 274.514 159.723Z" fill="white"/>
<path d="M176.436 109.364H176.163L175.112 109.388L171.25 109.457C167.989 109.517 163.487 109.637 158.51 109.774C153.533 109.911 149.027 110.003 145.765 110.027C144.135 110.027 142.814 110.027 141.9 110.027H140.849H140.579C140.547 110.033 140.514 110.033 140.482 110.027C140.514 110.022 140.547 110.022 140.579 110.027H140.849L141.9 110.003L145.761 109.935C149.023 109.875 153.529 109.754 158.506 109.621C163.483 109.489 167.989 109.388 171.25 109.364C172.861 109.364 174.202 109.364 175.112 109.364H176.163H176.436Z" fill="white"/>
<path d="M171.19 115.406C170.017 115.512 168.839 115.547 167.662 115.511C166.486 115.547 165.308 115.512 164.135 115.406C165.308 115.303 166.486 115.268 167.662 115.302C168.839 115.268 170.017 115.303 171.19 115.406Z" fill="white"/>
<path d="M172.486 93.8951C172.506 93.9474 168.129 95.7684 162.706 97.9593C157.282 100.15 152.868 101.887 152.844 101.831C152.82 101.774 157.201 99.9573 162.625 97.7664C168.049 95.5755 172.462 93.8429 172.486 93.8951Z" fill="white"/>
<path d="M163.612 95.274C163.636 95.3303 159.464 97.1634 154.298 99.3704C149.132 101.577 144.928 103.326 144.904 103.274C144.879 103.222 149.051 101.388 154.217 99.1774C159.384 96.9664 163.587 95.2137 163.612 95.274Z" fill="white"/>
<path d="M219.888 93.1353C219.912 93.1876 215.531 95.0087 210.107 97.1996C204.683 99.3905 200.27 101.123 200.246 101.071C200.222 101.019 204.603 99.1975 210.031 97.0066C215.459 94.8157 219.856 93.0791 219.888 93.1353Z" fill="white"/>
<path d="M210.997 94.5062C211.021 94.5625 206.85 96.3956 201.688 98.6026C196.525 100.81 192.314 102.558 192.289 102.506C192.265 102.454 196.437 100.621 201.603 98.4096C206.769 96.1986 210.997 94.47 210.997 94.5062Z" fill="white"/>
<path d="M220.746 109.344C220.746 109.4 212.036 109.501 201.293 109.565C190.55 109.629 181.84 109.633 181.84 109.565C181.84 109.497 190.546 109.408 201.293 109.348C212.04 109.288 220.746 109.3 220.746 109.344Z" fill="white"/>
<path d="M230.39 115.072C230.39 115.129 227.95 115.197 224.934 115.225C221.918 115.253 219.478 115.225 219.478 115.173C219.478 115.121 221.918 115.044 224.934 115.016C227.95 114.988 230.39 115.012 230.39 115.072Z" fill="white"/>
<path d="M63.6213 112.098C63.5445 112.124 63.4647 112.14 63.3838 112.146L62.7033 112.234C62.4053 112.267 62.0429 112.311 61.6241 112.383C61.2053 112.455 60.7262 112.508 60.2027 112.612C59.1517 112.797 57.9075 113.071 56.5465 113.416C55.0722 113.822 53.6194 114.303 52.1937 114.855C50.6796 115.454 49.2743 116.11 48.018 116.757C46.7617 117.404 45.6745 118.055 44.7967 118.638C44.3417 118.916 43.947 119.197 43.5887 119.442C43.2303 119.687 42.9363 119.888 42.6947 120.065L42.135 120.467C42.0709 120.517 42.0022 120.56 41.9297 120.596C41.983 120.536 42.0424 120.483 42.1069 120.435L42.6464 120.005C42.88 119.82 43.1699 119.603 43.5202 119.35C43.8705 119.097 44.2531 118.815 44.7282 118.546C45.6141 117.947 46.7093 117.292 47.9495 116.62C50.6647 115.171 53.5405 114.045 56.5183 113.263C57.8874 112.91 59.1397 112.648 60.1987 112.484C60.7262 112.387 61.2053 112.339 61.6281 112.283C62.0509 112.226 62.4335 112.19 62.7113 112.17L63.3999 112.118C63.4731 112.106 63.5471 112.099 63.6213 112.098Z" fill="white"/>
<path d="M135.53 102.615C135.53 102.615 135.413 102.458 135.127 102.241C134.741 101.945 134.281 101.761 133.798 101.706C133.073 101.646 132.344 101.723 131.648 101.935C129.196 102.552 126.919 103.722 124.992 105.356C124.033 106.16 123.526 106.751 123.498 106.723C123.595 106.569 123.709 106.427 123.836 106.297C124.169 105.928 124.521 105.576 124.891 105.244C126.121 104.15 127.519 103.259 129.031 102.606C129.86 102.244 130.722 101.957 131.604 101.75C132.322 101.542 133.074 101.476 133.818 101.557C134.324 101.626 134.797 101.843 135.179 102.18C135.281 102.271 135.371 102.374 135.449 102.486C135.513 102.566 135.538 102.61 135.53 102.615Z" fill="white"/>
<path d="M265.172 91.9977C264.611 92.1331 264.034 92.1926 263.457 92.1746C262.779 92.1543 262.105 92.0709 261.443 91.9253C260.57 91.7202 259.713 91.4515 258.878 91.1213C257.948 90.7716 256.958 90.3173 255.887 89.8711L254.216 89.1998C253.64 88.9706 253.032 88.7736 252.42 88.5485C249.732 87.6399 246.991 86.8948 244.213 86.3174C239.163 85.2678 234.034 84.6332 228.88 84.42C227.889 84.3677 226.995 84.3677 226.206 84.3476H224.193L222.92 84.3758H222.473C222.511 84.3687 222.549 84.3687 222.586 84.3758L222.916 84.3516L224.193 84.2833L226.206 84.2471C227.011 84.2471 227.889 84.2471 228.88 84.2954C234.048 84.4638 239.193 85.0826 244.254 86.1446C247.038 86.7155 249.783 87.4621 252.472 88.3797C253.084 88.6048 253.68 88.8058 254.272 89.039L255.943 89.7264C257.014 90.1887 258.001 90.6389 258.923 90.9967C259.746 91.3279 260.592 91.5966 261.455 91.8007C262.108 91.9568 262.774 92.051 263.445 92.0821C263.868 92.0966 264.292 92.0819 264.713 92.0379L265.039 91.9977H265.172Z" fill="#263238"/>
<path d="M71.4371 92.5525C69.8264 83.7567 68.7433 82.406 67.8332 79.3789C66.9232 76.3519 65.4776 74.3861 63.6777 73.6906C62.4697 73.2243 56.4015 71.0415 54.2915 71.7651C52.2272 72.4978 50.2619 73.4835 48.4408 74.6997C47.0275 75.6355 45.9565 77.0038 45.3886 78.5991L42.1673 87.6722L47.8368 93.3002L50.6796 87.2702L53.7641 94.5062L53.309 101.802L70.9982 106.554C72.5927 103.981 72.3511 97.5413 71.4371 92.5525Z" fill="#E3482B"/>
<g opacity="0.2">
<path d="M66.8427 82.9567C66.0615 87.5355 65.9367 88.1827 65.1555 92.7454C64.8857 94.3173 64.1005 96.7654 62.9811 97.9071C62.1516 98.7473 61.3382 99.5553 60.1826 99.8287C59.1115 100.082 57.4807 100.11 56.474 99.6679C55.4673 99.2257 54.6056 97.2559 55.0204 96.2469C56.5223 96.5685 56.9854 97.0509 58.2779 96.2469C59.4054 95.5313 61.008 93.9474 61.6201 92.7615C64.2012 87.7767 64.9139 87.5998 66.8547 82.9567" fill="black"/>
</g>
<path d="M54.0258 91.8289C53.7397 91.4441 53.4787 91.0412 53.2446 90.6229L51.4246 87.636L49.5562 84.6974C49.2776 84.302 49.0261 83.8884 48.8032 83.4592C48.9001 83.5472 48.9854 83.6472 49.0569 83.7567C49.2099 83.9537 49.4233 84.2471 49.677 84.613C50.1924 85.3446 50.885 86.3697 51.6017 87.5234C52.3185 88.6772 52.9426 89.7465 53.3735 90.5304C53.5909 90.9324 53.7761 91.2379 53.8728 91.463C53.9426 91.5763 53.9942 91.6997 54.0258 91.8289Z" fill="#263238"/>
<path d="M66.3715 100.042C66.2433 100.108 66.1083 100.161 65.9689 100.199C65.8038 100.254 65.6358 100.299 65.4655 100.335C65.243 100.395 65.0171 100.442 64.7891 100.476C64.1988 100.581 63.6007 100.636 63.0012 100.641C62.2656 100.642 61.5312 100.579 60.8067 100.452C60.0829 100.316 59.3727 100.115 58.6846 99.8528C58.128 99.6357 57.5894 99.3749 57.074 99.0729C56.8485 98.9483 56.6713 98.8116 56.4941 98.7031C56.3475 98.6079 56.2063 98.5045 56.0713 98.3935C55.9486 98.3094 55.8364 98.2109 55.7371 98.1001C55.7613 98.0679 56.2606 98.4579 57.1464 98.9443C57.6658 99.2238 58.204 99.4669 58.7571 99.6719C60.1165 100.178 61.5545 100.44 63.0052 100.448C63.5964 100.448 64.187 100.409 64.773 100.331C65.7555 100.19 66.3595 100.002 66.3715 100.042Z" fill="#263238"/>
<path d="M59.2725 86.3376C59.2403 86.4943 57.3397 90.2731 57.3397 90.2731L48.3683 85.5537L47.4543 81.6945C47.3034 81.0747 46.9129 80.5399 46.368 80.2069C45.8232 79.8739 45.1685 79.7699 44.547 79.9176L41.9015 80.999C41.7924 81.0416 41.6956 81.1105 41.6197 81.1996C41.5438 81.2887 41.4912 81.3952 41.4666 81.5095C41.4304 81.7025 41.4666 81.9115 41.8169 81.8673C42.4733 81.8151 43.8303 81.6703 43.8303 81.6703L43.2061 83.8693C43.0414 84.4455 43.1048 85.063 43.3833 85.5939L43.786 86.3536L44.6598 87.7647H44.6396C44.6396 87.7647 53.3614 96.7092 58.2578 97.2921C61.2013 97.6418 64.5354 89.4048 64.5354 89.4048L59.2725 86.3376Z" fill="#B78876"/>
<path d="M43.7658 81.8191C43.7658 81.8191 43.8343 81.7266 43.9833 81.6261C44.1828 81.4874 44.4207 81.4143 44.6638 81.4171C44.7907 81.4242 44.9134 81.4653 45.0189 81.536C45.1245 81.6067 45.2091 81.7045 45.2638 81.8191C45.3483 82 45.2919 82.1206 45.2638 82.1125C45.2356 82.1045 45.2638 82 45.1671 81.8633C45.1077 81.7765 45.0294 81.7043 44.938 81.6521C44.8467 81.5999 44.7447 81.569 44.6396 81.5618C44.4217 81.5649 44.2077 81.62 44.0155 81.7226C43.8907 81.7829 43.7779 81.8351 43.7658 81.8191Z" fill="#AA6550"/>
<path d="M44.8973 83.1899C44.8973 83.1899 44.8369 83.1175 44.7524 83.009C44.6443 82.8705 44.501 82.7635 44.3374 82.6991C44.1738 82.6348 43.9959 82.6155 43.8222 82.6432C43.6853 82.6432 43.6007 82.6914 43.5927 82.6753C43.5846 82.6593 43.6571 82.599 43.8021 82.5507C43.9937 82.4949 44.1984 82.504 44.3842 82.5768C44.57 82.6495 44.7264 82.7817 44.8289 82.9527C44.9014 83.0894 44.9094 83.1859 44.8973 83.1899Z" fill="#AA6550"/>
<path d="M61.1329 74.4102L58.7169 85.9034L65.1595 89.7666L67.6319 82.7035C67.6319 82.7035 66.593 74.1248 61.1329 74.4102Z" fill="#E3482B"/>
<path d="M64.6038 74.6112C64.6038 74.6112 64.5515 74.6554 64.4387 74.7157C64.326 74.776 64.1649 74.8645 63.9515 74.973C63.5247 75.1901 62.8965 75.4956 62.1113 75.8454C60.07 76.777 57.9208 77.4521 55.713 77.8554C53.4912 78.2517 51.2106 78.175 49.0206 77.6302C48.3652 77.4583 47.7264 77.2283 47.112 76.9428C46.8905 76.8504 46.7093 76.7499 46.6167 76.6936C46.5589 76.6648 46.5037 76.6312 46.4516 76.5931C46.6874 76.6727 46.9187 76.7653 47.1442 76.8705C47.77 77.1228 48.4133 77.3297 49.069 77.4895C51.2424 77.9863 53.4938 78.041 55.6888 77.6503C57.8819 77.2473 60.0218 76.5959 62.067 75.7087C62.8724 75.379 63.4884 75.0936 63.9274 74.9047C64.1461 74.792 64.3721 74.694 64.6038 74.6112Z" fill="#EBEBEB"/>
<path d="M66.2991 75.8815C66.2439 75.9313 66.1831 75.9745 66.1179 76.0102L65.5863 76.3519C65.3054 76.5356 65.0151 76.7046 64.7166 76.8584C64.3703 77.0393 63.9837 77.2604 63.5287 77.4614L62.8281 77.783C62.5825 77.8956 62.3167 77.988 62.0469 78.0966C61.5114 78.3177 60.9154 78.4986 60.2953 78.6996C57.5765 79.5182 54.7349 79.8543 51.8997 79.6925C51.2474 79.6402 50.6273 79.6041 50.0555 79.5116C49.7656 79.4674 49.4877 79.4392 49.222 79.391L48.4609 79.2382C47.9777 79.1538 47.5469 79.0252 47.1684 78.9287C46.8429 78.8502 46.5216 78.7549 46.206 78.6433L45.606 78.4342C45.5342 78.4151 45.4651 78.3868 45.4007 78.3498C45.4749 78.3539 45.5482 78.3688 45.6181 78.394L46.2302 78.5629C46.4919 78.6433 46.814 78.7357 47.1966 78.8161C47.5791 78.8965 48.0019 79.0212 48.4931 79.0935L49.2502 79.2302C49.5119 79.2784 49.7897 79.3026 50.0555 79.3387C50.6273 79.4232 51.2635 79.4553 51.8876 79.4995C54.7018 79.6424 57.5198 79.3094 60.2228 78.5146C60.8389 78.3217 61.4308 78.1488 61.9664 77.9317C62.2321 77.8272 62.4979 77.7388 62.7435 77.6343L63.4482 77.3247C63.9032 77.1398 64.2898 76.9227 64.6562 76.7539C65.0226 76.585 65.3045 76.4202 65.538 76.2835L66.0937 75.978C66.1575 75.9368 66.2266 75.9044 66.2991 75.8815Z" fill="#EBEBEB"/>
<path d="M65.1434 89.7666C64.9629 89.6905 64.788 89.6018 64.6199 89.5013L63.2026 88.6973L58.3706 85.9114L58.3102 85.8752V85.8069C58.4833 84.9506 58.6685 84.0261 58.8618 83.0773C59.1517 81.6462 59.4336 80.2875 59.6671 79.0573C59.8 78.4383 59.9087 77.8513 60.0295 77.2926C60.1388 76.776 60.3119 76.275 60.545 75.8011C60.8825 75.0973 61.48 74.5512 62.212 74.2776C62.4102 74.2094 62.6185 74.1754 62.8281 74.1771C62.9001 74.1721 62.9724 74.1803 63.0415 74.2012C62.7668 74.2104 62.4951 74.2619 62.2362 74.3539C61.5445 74.6452 60.9871 75.1844 60.6738 75.8655C60.4561 76.3337 60.2952 76.8263 60.1946 77.3327C60.0859 77.8835 59.9732 78.4744 59.8524 79.0895C59.6027 80.3357 59.3289 81.6945 59.047 83.1095C58.8538 84.0622 58.6645 84.9828 58.4914 85.8391L58.443 85.7346L63.2469 88.5847L64.6361 89.4289C64.8143 89.5272 64.984 89.6401 65.1434 89.7666Z" fill="#263238"/>
<path d="M67.1125 82.3618C67.1479 82.7195 67.1371 83.0802 67.0802 83.4351C66.9959 84.2943 66.8424 85.1452 66.6212 85.9798C66.4002 86.8152 66.1148 87.6324 65.7675 88.4239C65.6416 88.7606 65.4724 89.0795 65.2642 89.3727C65.3628 89.0296 65.4852 88.6937 65.6306 88.3677C66.2419 86.7682 66.6792 85.1078 66.9353 83.415C66.9719 83.0606 67.0311 82.7088 67.1125 82.3618Z" fill="#263238"/>
<path d="M32.1811 146.292L32.1086 152.426C32.1086 152.426 25.8351 154.416 25.7143 155.55L37.6252 156.113L38.1325 146.557L32.1811 146.292Z" fill="#455A64"/>
<path d="M35.8373 152.085C35.9504 152.125 36.0445 152.206 36.1017 152.311C36.159 152.416 36.1752 152.539 36.1474 152.655C36.1119 152.77 36.0335 152.867 35.9285 152.925C35.8235 152.983 35.7 152.999 35.5837 152.969C35.4643 152.925 35.3651 152.839 35.305 152.727C35.2449 152.616 35.228 152.486 35.2575 152.362C35.3081 152.247 35.4013 152.156 35.5177 152.108C35.634 152.06 35.7644 152.059 35.8816 152.105" fill="#E0E0E0"/>
<path d="M37.6252 156.113V155.148L26.1975 154.967C26.1975 154.967 25.6539 155.172 25.6982 155.55L37.6252 156.113Z" fill="#E0E0E0"/>
<path d="M31.9194 152.358C31.9194 152.414 32.2093 152.454 32.4831 152.655C32.7569 152.856 32.8858 153.106 32.9583 153.086C33.0307 153.066 32.9583 152.728 32.5999 152.491C32.2415 152.253 31.9073 152.302 31.9194 152.358Z" fill="#263238"/>
<path d="M30.6429 152.812C30.6429 152.869 30.8765 152.981 31.0456 153.234C31.2147 153.488 31.2751 153.753 31.3355 153.753C31.3959 153.753 31.4442 153.427 31.2067 153.114C30.9691 152.8 30.647 152.76 30.6429 152.812Z" fill="#263238"/>
<path d="M29.8618 154.272C29.9141 154.272 30.0107 154.002 29.8618 153.677C29.7128 153.351 29.4591 153.214 29.4349 153.275C29.4108 153.335 29.5678 153.5 29.6725 153.769C29.7772 154.038 29.7973 154.264 29.8618 154.272Z" fill="#263238"/>
<path d="M32.0885 150.959C32.1127 151.015 32.3825 150.959 32.7126 150.983C33.0428 151.007 33.2885 151.14 33.3207 151.092C33.3529 151.043 33.1193 150.822 32.7328 150.782C32.3462 150.742 32.0643 150.915 32.0885 150.959Z" fill="#263238"/>
<g opacity="0.3">
<path d="M32.169 147.506L32.1529 148.599L38.0117 148.824L38.0641 147.84L32.169 147.506Z" fill="black"/>
</g>
<path d="M32.1288 149.721C32.3211 149.785 32.5272 149.794 32.7247 149.749C32.9416 149.721 33.154 149.666 33.3569 149.584C33.4781 149.539 33.5953 149.484 33.7072 149.419C33.7768 149.387 33.8407 149.343 33.8965 149.291C33.9369 149.251 33.9628 149.199 33.9701 149.143C33.9774 149.087 33.9656 149.03 33.9367 148.981C33.909 148.94 33.8721 148.905 33.8288 148.88C33.7855 148.855 33.737 148.84 33.6871 148.837C33.6114 148.833 33.5354 148.839 33.4616 148.857C33.3337 148.881 33.2084 148.918 33.0871 148.965C32.8822 149.047 32.6908 149.16 32.5194 149.299C32.2294 149.544 32.1167 149.757 32.1449 149.769C32.1731 149.781 32.314 149.612 32.6039 149.415C32.7744 149.302 32.9584 149.21 33.1515 149.142C33.2645 149.104 33.3803 149.074 33.4978 149.054C33.6267 149.025 33.7354 149.029 33.7636 149.086C33.7918 149.142 33.7636 149.118 33.7636 149.154C33.7219 149.191 33.676 149.224 33.6267 149.251C33.518 149.311 33.4093 149.367 33.3046 149.415C33.1148 149.497 32.9181 149.562 32.7167 149.608C32.5185 149.633 32.3221 149.671 32.1288 149.721Z" fill="#263238"/>
<path d="M32.2133 149.809C32.3331 149.645 32.3966 149.446 32.3945 149.243C32.4169 149.023 32.4005 148.801 32.3462 148.587C32.3138 148.459 32.2679 148.336 32.2093 148.217C32.181 148.137 32.1323 148.066 32.0681 148.01C32.0039 147.955 31.9263 147.917 31.8429 147.9C31.7903 147.898 31.7382 147.911 31.6932 147.938C31.6481 147.965 31.6119 148.005 31.5892 148.053C31.5537 148.121 31.5292 148.194 31.5167 148.27C31.4966 148.403 31.4966 148.538 31.5167 148.672C31.5387 148.896 31.6162 149.112 31.7422 149.299C31.9597 149.62 32.2013 149.701 32.2053 149.681C32.2093 149.661 32.0281 149.532 31.863 149.226C31.7686 149.051 31.7136 148.858 31.7019 148.66C31.6955 148.544 31.705 148.427 31.7301 148.314C31.7543 148.189 31.8066 148.089 31.855 148.105C31.9033 148.121 32.008 148.205 32.0523 148.31C32.1069 148.415 32.1513 148.526 32.1851 148.64C32.243 148.834 32.2728 149.036 32.2737 149.238C32.2415 149.584 32.169 149.797 32.2133 149.809Z" fill="#263238"/>
<path d="M56.4619 101.867C56.4619 101.867 37.8507 94.068 32.0925 93.7424C28.4685 93.5334 25.7465 95.8489 26.2378 99.5794C26.4834 101.449 31.6254 123.297 31.6254 123.297L39.4613 119.728L35.6924 104.616L50.9937 112.037L56.4619 101.867Z" fill="#263238"/>
<path d="M33.3529 100.793C33.2925 100.846 33.9086 101.638 34.5609 102.687C35.2132 103.736 35.6481 104.641 35.7206 104.612C35.793 104.584 35.4588 103.616 34.7944 102.546C34.13 101.477 33.4213 100.745 33.3529 100.793Z" fill="#455A64"/>
<path d="M31.8308 101.662C31.7905 101.73 32.7287 102.325 33.8441 103.137C34.9595 103.949 35.7971 104.661 35.8575 104.604C35.9179 104.548 35.1125 103.716 33.9931 102.912C32.8737 102.108 31.863 101.597 31.8308 101.662Z" fill="#455A64"/>
<path d="M70.9781 106.554C70.9781 106.554 68.6386 109.565 66.4078 110.389C63.5891 111.422 42.8679 121.187 42.8679 121.187C42.8679 121.187 39.107 149.082 39.405 147.916L30.7275 147.707L31.6697 122.015C31.7825 118.727 34.424 114.948 37.2628 113.268L56.4619 101.867L70.9781 106.554Z" fill="#263238"/>
<path d="M31.5046 126.718C31.5322 126.603 31.5444 126.484 31.5409 126.365C31.5409 126.107 31.5731 125.774 31.5932 125.356C31.6425 124.119 31.7581 122.886 31.9395 121.661C32.1937 119.852 32.8365 118.118 33.824 116.58C34.435 115.696 35.1889 114.919 36.0548 114.281C36.9944 113.597 37.9777 112.975 38.9983 112.419C43.1739 110.031 46.7778 107.595 49.4434 105.927C50.7722 105.083 51.8594 104.411 52.6003 103.953L53.4621 103.423C53.5663 103.365 53.6647 103.298 53.756 103.222C53.6451 103.262 53.5385 103.313 53.4379 103.374C53.2325 103.483 52.9305 103.644 52.548 103.861C51.7789 104.291 50.6837 104.942 49.3267 105.762C46.6328 107.394 43.0088 109.802 38.8573 112.194C37.8263 112.757 36.8336 113.386 35.8857 114.08C34.998 114.737 34.2276 115.539 33.6066 116.451C32.6133 118.03 31.9795 119.807 31.7503 121.657C31.5844 122.89 31.4983 124.132 31.4926 125.376C31.4926 125.778 31.4926 126.128 31.4926 126.389C31.4867 126.499 31.4908 126.609 31.5046 126.718Z" fill="#455A64"/>
<path d="M63.3193 109.493C63.1585 109.244 62.9809 109.006 62.7878 108.781C62.3878 108.201 62.1102 107.545 61.9717 106.854C61.8333 106.163 61.8369 105.451 61.9825 104.761C62.0719 104.478 62.1419 104.189 62.1919 103.897C61.9964 104.13 61.8584 104.405 61.7892 104.701C61.583 105.415 61.5526 106.168 61.7006 106.896C61.8451 107.624 62.1658 108.306 62.6348 108.882C63.0012 109.344 63.3032 109.517 63.3193 109.493Z" fill="#455A64"/>
<path d="M33.9166 147.707C33.9308 147.661 33.939 147.614 33.9408 147.566C33.9408 147.454 33.973 147.317 33.9931 147.144C34.0374 146.742 34.0938 146.211 34.1663 145.536C34.3072 144.105 34.5085 142.067 34.7582 139.558C34.875 138.296 35.0078 136.913 35.1609 135.43C35.3139 133.946 35.4548 132.359 35.5635 130.686C35.6722 129.014 35.8494 127.265 36.1554 125.46C36.4543 123.609 36.9958 121.804 37.7661 120.093C38.5705 118.403 39.6328 116.848 40.915 115.483C42.1164 114.213 43.4319 113.055 44.845 112.025C47.2668 110.323 49.782 108.756 52.3789 107.334C54.5815 106.072 56.3371 104.994 57.5008 104.182C58.0887 103.78 58.5316 103.455 58.8296 103.226L59.1638 102.964C59.239 102.905 59.2752 102.873 59.2725 102.868C59.2277 102.886 59.1857 102.91 59.1477 102.94L58.7974 103.181C58.4914 103.394 58.0363 103.708 57.4444 104.098C56.2606 104.878 54.4969 105.927 52.2822 107.169C49.6641 108.571 47.131 110.125 44.696 111.824C43.2641 112.857 41.9322 114.021 40.7177 115.302C39.4126 116.685 38.3324 118.264 37.5165 119.981C36.7429 121.713 36.2014 123.539 35.9058 125.412C35.6038 127.221 35.4508 128.978 35.3259 130.638C35.2011 132.298 35.0763 133.898 34.9233 135.382C34.7703 136.865 34.6736 138.248 34.5649 139.514C34.3515 142.027 34.1622 144.065 34.0616 145.5C34.0079 146.191 33.9676 146.727 33.9408 147.108C33.9408 147.281 33.9206 147.421 33.9126 147.53C33.9045 147.639 33.9086 147.707 33.9166 147.707Z" fill="#455A64"/>
<path d="M54.36 57.6227C54.0678 56.8714 53.5169 56.2487 52.8062 55.8663C52.0955 55.4839 51.2716 55.3669 50.4823 55.5363C50.135 55.6631 49.7719 55.7416 49.4032 55.7695C48.9563 55.693 48.517 55.5773 48.0905 55.4238C47.6072 55.3456 47.112 55.4495 46.7012 55.7155C46.2904 55.9815 45.9934 56.3905 45.8678 56.8629C45.4895 56.7712 45.0958 56.7628 44.714 56.8385C44.3322 56.9142 43.9716 57.072 43.6571 57.3011C43.3488 57.5395 43.1299 57.8745 43.0356 58.2523C42.9414 58.6301 42.9773 59.0286 43.1377 59.3835C43.2947 59.6769 43.5403 59.9101 43.6974 60.2116C43.935 60.706 43.8262 61.301 43.9913 61.8196C44.1463 62.1967 44.4045 62.5226 44.7363 62.7601C45.0682 62.9975 45.4603 63.1369 45.8678 63.1623C46.6876 63.2043 47.5079 63.0883 48.2838 62.8206" fill="#263238"/>
<path d="M50.6112 73.5218C50.5105 72.7419 50.4461 72.1952 50.4461 72.1952C50.4461 72.1952 47.8489 72.1952 46.8221 68.9792C46.3026 67.3712 45.9563 64.6858 45.747 62.4668C45.7012 61.9941 45.7518 61.517 45.8956 61.0643C46.0395 60.6117 46.2737 60.1928 46.5841 59.8329C46.8946 59.4731 47.2748 59.1797 47.7018 58.9705C48.1289 58.7613 48.5939 58.6406 49.069 58.6156L55.9626 58.2578L56.1116 59.3231L57.9276 72.557C57.9933 73.0368 57.9633 73.5248 57.8394 73.993C57.7155 74.4612 57.5 74.9003 57.2055 75.2851C56.911 75.6699 56.5433 75.9928 56.1233 76.2352C55.7034 76.4776 55.2396 76.6347 54.7586 76.6976C54.2773 76.762 53.788 76.7308 53.3187 76.6059C52.8495 76.481 52.4095 76.2648 52.0242 75.9697C51.6388 75.6747 51.3156 75.3065 51.0732 74.8864C50.8307 74.4663 50.6737 74.0026 50.6112 73.5218Z" fill="#B78876"/>
<path d="M46.7093 64.3602C46.7263 64.4702 46.7853 64.5693 46.8739 64.6367C46.9625 64.7042 47.0738 64.7348 47.1845 64.722C47.2393 64.7186 47.2928 64.704 47.3417 64.6792C47.3907 64.6543 47.434 64.6198 47.4691 64.5776C47.5042 64.5354 47.5302 64.4866 47.5457 64.434C47.5611 64.3814 47.5657 64.3262 47.559 64.2718C47.5439 64.1609 47.4855 64.0606 47.3964 63.9927C47.3073 63.9249 47.1949 63.8951 47.0838 63.91C47.029 63.9134 46.9755 63.928 46.9266 63.9528C46.8776 63.9776 46.8343 64.0122 46.7992 64.0544C46.7641 64.0966 46.7381 64.1454 46.7226 64.198C46.7072 64.2506 46.7026 64.3058 46.7093 64.3602Z" fill="#263238"/>
<path d="M46.5322 63.7653C46.5926 63.8095 46.8744 63.5241 47.3375 63.4517C47.8006 63.3793 48.1428 63.5562 48.2032 63.4919C48.2636 63.4276 48.1549 63.3713 47.9938 63.2909C47.7755 63.1839 47.5288 63.1488 47.2892 63.1904C47.0521 63.2258 46.833 63.3372 46.665 63.508C46.5322 63.6366 46.4999 63.7452 46.5322 63.7653Z" fill="#263238"/>
<path d="M51.0259 63.6286C51.0429 63.7382 51.102 63.837 51.1907 63.9038C51.2795 63.9706 51.3908 64.0002 51.5011 63.9864C51.5558 63.9834 51.6094 63.9693 51.6585 63.945C51.7076 63.9206 51.7513 63.8865 51.7867 63.8447C51.8221 63.8029 51.8487 63.7544 51.8646 63.702C51.8806 63.6496 51.8857 63.5945 51.8796 63.5401C51.8626 63.4302 51.8036 63.3311 51.715 63.2636C51.6264 63.1962 51.5151 63.1656 51.4044 63.1783C51.3493 63.1812 51.2953 63.1954 51.2459 63.22C51.1965 63.2446 51.1527 63.2791 51.1172 63.3213C51.0817 63.3636 51.0553 63.4126 51.0396 63.4655C51.0239 63.5183 51.0192 63.5739 51.0259 63.6286Z" fill="#263238"/>
<path d="M51.0179 63.1381C51.0783 63.1864 51.3601 62.8969 51.8232 62.8286C52.2863 62.7602 52.6285 62.9291 52.6889 62.8648C52.7493 62.8004 52.6406 62.7482 52.4795 62.6638C52.2601 62.5604 52.0145 62.5253 51.7749 62.5633C51.5387 62.6013 51.3204 62.7124 51.1507 62.8808C51.0179 63.0095 50.9897 63.114 51.0179 63.1381Z" fill="#263238"/>
<path d="M49.9025 66.7722C49.6499 66.7382 49.394 66.7382 49.1414 66.7722C49.0247 66.7722 48.9119 66.7722 48.8797 66.6958C48.8427 66.5794 48.8427 66.4545 48.8797 66.3381C48.9441 66.0406 49.0126 65.727 49.0851 65.4014C49.2817 64.6022 49.4163 63.7891 49.4877 62.9693C49.2239 63.7561 49.0233 64.5627 48.8878 65.3813C48.8233 65.7109 48.7589 66.0245 48.7025 66.326C48.6463 66.475 48.6463 66.6393 48.7025 66.7883C48.726 66.8264 48.7578 66.8588 48.7954 66.8831C48.833 66.9074 48.8755 66.9231 48.92 66.929C48.9868 66.9374 49.0545 66.9374 49.1213 66.929C49.3873 66.9099 49.6498 66.8573 49.9025 66.7722Z" fill="#263238"/>
<path d="M50.4461 72.1952C52.0023 71.9722 53.466 71.3223 54.6741 70.3179C54.6741 70.3179 53.9573 72.762 50.6112 72.967L50.4461 72.1952Z" fill="#AA6550"/>
<path d="M51.2917 66.8727C51.2152 66.8727 51.2917 67.3712 50.9293 67.7893C50.5669 68.2074 50.0273 68.2355 50.0313 68.3038C50.0354 68.3722 50.1642 68.3842 50.3897 68.3521C50.6799 68.3131 50.9461 68.1703 51.1387 67.9501C51.3273 67.7415 51.4257 67.467 51.4125 67.1863C51.4004 66.9772 51.3239 66.8647 51.2917 66.8727Z" fill="#263238"/>
<path d="M50.6152 61.3774C50.6796 61.494 51.1266 61.3774 51.6702 61.3412C52.2138 61.305 52.6688 61.3975 52.7211 61.2769C52.7735 61.1563 52.6527 61.1161 52.4594 61.0236C52.2031 60.912 51.9245 60.8608 51.6451 60.874C51.3658 60.8873 51.0933 60.9646 50.8487 61.1C50.6716 61.2085 50.587 61.3211 50.6152 61.3774Z" fill="#263238"/>
<path d="M46.4879 62.4226C46.5845 62.511 46.8905 62.3542 47.257 62.2899C47.6234 62.2256 47.9657 62.2497 48.022 62.1291C48.0462 62.0728 47.9777 61.9764 47.8247 61.904C47.6187 61.8125 47.3894 61.7872 47.1684 61.8316C46.9479 61.8705 46.7451 61.9773 46.5885 62.1372C46.4718 62.2658 46.4436 62.3784 46.4879 62.4226Z" fill="#263238"/>
<path d="M45.3846 61.0156C45.3846 61.0156 47.2086 61.6306 49.3025 60.2317C50.6756 59.3151 52.3426 58.7402 52.7574 58.9895C53.1721 59.2387 53.4419 60.7342 54.9519 60.9995C54.9519 60.9995 55.2177 63.8939 56.3572 63.6446C57.1626 63.4678 56.6955 60.2759 56.3572 58.4548C56.2866 58.1027 56.0999 57.7844 55.827 57.5505C55.554 57.3167 55.2106 57.1807 54.8513 57.1644L52.7292 57.08L50.0797 57.8197L47.2368 58.5915L45.0705 59.496L45.3846 61.0156Z" fill="#263238"/>
<path d="M56.1035 62.4668C56.1438 62.4387 57.9035 61.514 58.2296 63.4316C58.5558 65.3491 56.5626 65.2768 56.5465 65.2245C56.5304 65.1723 56.1035 62.4668 56.1035 62.4668Z" fill="#B78876"/>
<path d="M57.0095 64.3964C57.0095 64.3964 57.0498 64.4165 57.1102 64.4326C57.195 64.4527 57.2843 64.4398 57.3599 64.3964C57.4694 64.2965 57.5508 64.1697 57.596 64.0287C57.6412 63.8876 57.6487 63.7372 57.6176 63.5924C57.5943 63.4275 57.5352 63.2697 57.4444 63.1301C57.4152 63.0736 57.3729 63.0248 57.3211 62.9878C57.2693 62.9507 57.2095 62.9265 57.1465 62.917C57.1065 62.9136 57.0665 62.9242 57.0335 62.9469C57.0004 62.9696 56.9763 63.0031 56.9653 63.0417C56.9653 63.0979 56.9653 63.1341 56.9653 63.1422C56.9653 63.1502 56.921 63.114 56.921 63.0336C56.9244 62.9844 56.9442 62.9376 56.9773 62.901C57.0238 62.8524 57.0873 62.8236 57.1545 62.8206C57.2364 62.8221 57.3165 62.8447 57.3871 62.8863C57.4576 62.9278 57.5162 62.9869 57.5572 63.0577C57.6673 63.2096 57.7379 63.3864 57.7625 63.5723C57.8025 63.7415 57.7909 63.9188 57.7291 64.0814C57.6674 64.244 57.5585 64.3845 57.4162 64.4848C57.3672 64.5081 57.3135 64.5201 57.2592 64.5201C57.2049 64.5201 57.1512 64.5081 57.1022 64.4848C57.0216 64.4446 57.0055 64.4044 57.0095 64.3964Z" fill="#AA6550"/>
<path d="M46.3067 56.1554C46.3067 56.1554 46.3711 56.2599 46.508 56.4127C46.7041 56.6293 46.9542 56.7902 47.2328 56.879C47.6468 57.0125 48.0892 57.0319 48.5133 56.9353C49.0406 56.8073 49.5586 56.6434 50.0635 56.4448C50.5863 56.2393 51.1447 56.1396 51.7064 56.1514C52.1815 56.1685 52.6309 56.3705 52.9587 56.7142C53.182 56.9385 53.3176 57.235 53.3413 57.5503C53.358 57.6647 53.3383 57.7814 53.2849 57.884C53.2647 57.884 53.2849 57.7634 53.2607 57.5584C53.2105 57.2735 53.0692 57.0126 52.8581 56.8147C52.5478 56.5178 52.1361 56.3497 51.7064 56.3443C51.1703 56.3448 50.6389 56.4457 50.1401 56.6418C49.6267 56.8457 49.0974 57.007 48.5576 57.1242C48.1018 57.2183 47.6286 57.1821 47.1925 57.0197C46.8965 56.9112 46.6389 56.7183 46.4516 56.4649C46.3067 56.28 46.3067 56.1594 46.3067 56.1554Z" fill="#455A64"/>
<path d="M52.7936 57.9925C52.7936 57.9925 52.697 57.892 52.4956 57.7513C52.2085 57.5759 51.878 57.484 51.5413 57.486C51.0308 57.4841 50.5276 57.6069 50.0756 57.8438C49.5107 58.1484 48.927 58.4169 48.328 58.6478C47.7598 58.8239 47.1613 58.8815 46.5698 58.8172C45.9783 58.7529 45.4063 58.568 44.8893 58.2739C44.5765 58.0982 44.2904 57.879 44.0397 57.6227C43.942 57.5356 43.8603 57.4322 43.798 57.3172C44.1546 57.6317 44.5433 57.908 44.9577 58.1413C45.976 58.6748 47.1638 58.786 48.2636 58.4508C48.8541 58.2123 49.432 57.944 49.9951 57.6468C50.4757 57.404 51.0114 57.2904 51.5494 57.3172C51.915 57.3312 52.267 57.4591 52.5561 57.683C52.6617 57.763 52.7438 57.8699 52.7936 57.9925Z" fill="#455A64"/>
<path d="M46.8301 90.6591L37.4802 82.7035L34.3958 83.3989C34.3958 83.3989 37.6453 90.1445 39.9969 92.6168C39.9969 92.6168 42.3203 95.7202 46.1537 94.3776C49.987 93.0349 46.8301 90.6591 46.8301 90.6591Z" fill="#B78876"/>
<path d="M36.7715 73.9399H32.7972C32.6472 73.948 32.501 73.9894 32.369 74.0611C32.2371 74.1327 32.1228 74.2328 32.0345 74.3541C31.9462 74.4754 31.886 74.6148 31.8585 74.7622C31.8309 74.9096 31.8366 75.0613 31.8751 75.2062L35.8736 82.9768C35.9494 83.1248 36.0648 83.249 36.2069 83.3356C36.349 83.4221 36.5124 83.4677 36.6789 83.4673H41.5109C41.6245 83.4546 41.7332 83.4141 41.8273 83.3493C41.9214 83.2846 41.998 83.1976 42.0502 83.0961C42.1024 82.9946 42.1287 82.8817 42.1266 82.7676C42.1246 82.6535 42.0943 82.5417 42.0384 82.4422L38.1849 74.8323C38.0537 74.5686 37.8525 74.346 37.6033 74.1886C37.3541 74.0313 37.0664 73.9452 36.7715 73.9399Z" fill="#455A64"/>
<path d="M36.5058 74.4102H32.5314C32.4174 74.4095 32.305 74.4381 32.2053 74.4933C32.1055 74.5485 32.0216 74.6284 31.9618 74.7253C31.9019 74.8223 31.868 74.933 31.8634 75.0467C31.8588 75.1605 31.8836 75.2736 31.9355 75.375L35.8373 82.9768C35.9139 83.1242 36.0294 83.2479 36.1714 83.3344C36.3134 83.4208 36.4764 83.4668 36.6427 83.4673H41.4344C41.5002 83.4645 41.5643 83.4457 41.6211 83.4125C41.6779 83.3793 41.7257 83.3327 41.7603 83.2767C41.7949 83.2208 41.8152 83.1572 41.8194 83.0916C41.8237 83.026 41.8118 82.9604 41.7847 82.9005L37.9272 75.2946C37.7968 75.0292 37.5945 74.8056 37.3433 74.6493C37.092 74.4929 36.8018 74.4101 36.5058 74.4102Z" fill="#263238"/>
<path d="M36.1675 77.586L33.7515 78.5508L33.2361 80.4965L34.3998 83.3909L38.656 84.018L37.4077 82.7437L37.5648 81.6301C37.5648 81.6301 38.7728 81.2563 38.7728 81.0754C38.7728 80.8945 38.6238 80.2714 38.4426 80.2513C37.9659 80.3599 37.4986 80.5065 37.0453 80.6895C37.0453 80.6895 38.5231 79.5196 38.4829 79.3307C38.4426 79.1418 38.2815 78.6634 37.9876 78.6071C37.6936 78.5508 35.3018 79.6804 35.3018 79.6804L34.8991 80.5608L34.5609 79.1498C34.5609 79.1498 36.691 78.5548 36.1675 77.586Z" fill="#B78876"/>
<path d="M36.4735 82.1527C36.4735 82.1527 36.4132 82.0723 36.389 81.9115C36.3635 81.7068 36.3867 81.4989 36.4567 81.3048C36.5266 81.1106 36.6414 80.9356 36.7917 80.794C36.9125 80.6895 37.0051 80.6533 37.0131 80.6653C36.8294 80.8685 36.6785 81.0991 36.5662 81.3487C36.4945 81.6105 36.4632 81.8816 36.4735 82.1527Z" fill="#AA6550"/>
<path d="M35.3219 81.7306C35.3691 81.5228 35.4014 81.3119 35.4186 81.0995C35.4283 80.8621 35.469 80.627 35.5394 80.4C35.5854 80.2543 35.6657 80.1216 35.7736 80.0132C35.8814 79.9048 36.0138 79.8238 36.1595 79.7769C36.7353 79.5679 37.2587 79.399 37.6373 79.2744C37.8396 79.1981 38.0485 79.1402 38.2614 79.1016C38.0739 79.2084 37.8755 79.2946 37.6695 79.3588C37.295 79.5036 36.7715 79.6885 36.2038 79.8935C36.0712 79.9391 35.9502 80.0132 35.8494 80.1106C35.76 80.2052 35.6914 80.3175 35.6481 80.4402C35.5744 80.6576 35.527 80.883 35.5071 81.1116C35.4993 81.3303 35.4356 81.5434 35.3219 81.7306Z" fill="#AA6550"/>
<path d="M34.7662 81.2965C34.7281 81.1393 34.7281 80.9753 34.7662 80.8181C34.8105 80.5608 34.8709 80.3598 34.9072 80.3638C34.945 80.5211 34.945 80.685 34.9072 80.8422C34.8629 81.0995 34.8025 81.3005 34.7662 81.2965Z" fill="#AA6550"/>
<path d="M34.7018 75.8775C34.7018 75.9777 34.7316 76.0756 34.7873 76.1589C34.8431 76.2422 34.9223 76.3071 35.015 76.3455C35.1077 76.3838 35.2097 76.3938 35.3082 76.3743C35.4066 76.3548 35.497 76.3065 35.5679 76.2357C35.6389 76.1648 35.6872 76.0746 35.7068 75.9763C35.7264 75.8781 35.7163 75.7762 35.6779 75.6837C35.6395 75.5911 35.5745 75.512 35.491 75.4563C35.4076 75.4007 35.3095 75.371 35.2092 75.371C35.1424 75.3705 35.0762 75.3832 35.0144 75.4084C34.9526 75.4337 34.8964 75.471 34.8492 75.5181C34.802 75.5653 34.7646 75.6213 34.7393 75.683C34.714 75.7447 34.7013 75.8108 34.7018 75.8775Z" fill="#FAFAFA"/>
<path d="M20.7776 152.503C21.4083 152.698 21.993 153.018 22.4968 153.444C23.0005 153.871 23.4128 154.394 23.709 154.983C24.296 156.167 24.6032 157.469 24.607 158.79C24.6875 161.331 23.6325 164.064 22.3883 166.287C20.0085 164.76 19.0582 161.604 18.6717 159.996C18.0677 157.431 18.5307 152.43 20.7776 152.499" fill="#E3482B"/>
<path d="M25.4445 170.066C25.1964 169.372 25.1365 168.624 25.2709 167.899C25.4052 167.174 25.7291 166.497 26.2096 165.938C26.6999 165.387 27.2955 164.939 27.9613 164.621C28.6272 164.303 29.3499 164.12 30.0873 164.084C30.7637 164.036 31.5207 164.125 31.9838 164.623C32.1873 164.868 32.3215 165.164 32.3725 165.478C32.4234 165.793 32.3893 166.115 32.2737 166.412C32.033 167.003 31.6399 167.521 31.1342 167.911C29.4712 169.326 27.6028 170.388 25.4445 170.066Z" fill="#E3482B"/>
<path d="M23.858 178.134C23.8397 177.961 23.8397 177.785 23.858 177.612C23.858 177.238 23.8902 176.759 23.9103 176.185C23.9261 174.601 24.1981 173.03 24.7157 171.533C25.257 170.034 26.1881 168.704 27.4135 167.682C27.7854 167.382 28.1908 167.126 28.6215 166.918C28.7746 166.842 28.9034 166.806 28.9839 166.77C29.0645 166.734 29.1128 166.725 29.1168 166.734C28.1234 167.224 27.2374 167.907 26.5102 168.742C25.783 169.577 25.2292 170.547 24.8808 171.598C24.3769 173.08 24.096 174.628 24.0473 176.193C24.007 176.792 23.9707 177.278 23.9385 177.616C23.926 177.79 23.8991 177.964 23.858 178.134Z" fill="#263238"/>
<path d="M20.7615 156.342C20.7856 156.414 20.8044 156.488 20.8179 156.563C20.8528 156.729 20.8971 156.942 20.9507 157.202C21.0635 157.757 21.2165 158.565 21.3937 159.562C21.7521 161.572 22.199 164.326 22.6379 167.389C23.0768 170.452 23.403 173.234 23.6124 175.252C23.7171 176.261 23.7936 177.077 23.8419 177.644C23.8607 177.912 23.8768 178.129 23.8902 178.295C23.9018 178.37 23.9018 178.446 23.8902 178.52C23.8701 178.446 23.8566 178.371 23.8499 178.295C23.8298 178.13 23.8016 177.917 23.7654 177.648C23.6929 177.065 23.5963 176.257 23.4755 175.268C23.2339 173.258 22.8835 170.476 22.4527 167.413C22.0218 164.35 21.587 161.604 21.2648 159.594C21.1038 158.609 20.9749 157.805 20.8622 157.222C20.8219 156.957 20.7897 156.744 20.7615 156.579C20.751 156.5 20.751 156.421 20.7615 156.342Z" fill="#263238"/>
<path d="M22.0138 172.12C21.5401 170.643 20.7207 169.299 19.6235 168.2C18.5263 167.101 17.1827 166.279 15.704 165.801C14.947 165.564 13.9967 165.479 13.4893 166.086C12.982 166.693 13.2558 167.618 13.6464 168.305C14.4865 169.725 15.7293 170.865 17.2178 171.581C18.7063 172.296 20.3738 172.555 22.0098 172.325" fill="#E3482B"/>
<path d="M16.3765 168.124C16.5384 168.153 16.6975 168.196 16.8516 168.253C17.0367 168.307 17.2183 168.373 17.3952 168.45C17.6046 168.543 17.8502 168.623 18.0999 168.76C18.3758 168.894 18.6446 169.043 18.9052 169.206C19.2119 169.39 19.5089 169.59 19.7951 169.805C21.1128 170.793 22.1689 172.087 22.8715 173.576C23.0241 173.899 23.1586 174.23 23.2741 174.568C23.38 174.86 23.4674 175.158 23.5359 175.461C23.5984 175.71 23.6468 175.962 23.6808 176.217C23.7158 176.407 23.7387 176.599 23.7493 176.792C23.7659 176.955 23.7686 177.119 23.7573 177.282C23.713 177.282 23.6849 176.578 23.399 175.489C23.3228 175.194 23.2314 174.903 23.1251 174.617C23.0096 174.285 22.8752 173.96 22.7225 173.644C22.3654 172.929 21.932 172.255 21.4299 171.634C20.9136 171.015 20.3332 170.451 19.6985 169.954C19.4204 169.739 19.1314 169.539 18.8327 169.355C18.5729 169.186 18.304 169.032 18.0274 168.892C17.0409 168.358 16.3603 168.161 16.3765 168.124Z" fill="#263238"/>
</svg>
